<svg xmlns="http://www.w3.org/2000/svg" width="336" height="169.496" viewBox="0 0 336 169.496">
  <g id="Group_81" data-name="Group 81" transform="translate(-9395.5 -231)">
    <rect id="Rectangle_19" data-name="Rectangle 19" width="335" height="168.995" rx="30" transform="translate(9396 231)" fill="#57b46b" opacity="0.8"/>
    <path id="Intersection_1" data-name="Intersection 1" d="M61.986,169a30,30,0,0,1-30-30V83.028C42.445,72.534,55.2,64.9,69.872,62.064a81.087,81.087,0,0,1,15.383-1.6c20.443,0,31.011,9.8,40.732,19.611,13.042,13.157,24.553,26.314,56.325,15.782,0,0,63.777-46.154,123.624-25.688a122.736,122.736,0,0,1,61.049,45.271V139a30,30,0,0,1-30,30Z" transform="translate(9364.015 231)" fill="#57b46b" stroke="rgba(0,0,0,0)" stroke-miterlimit="10" stroke-width="1"/>
  </g>
</svg>
