<?xml version="1.0" encoding="utf-8"?>
<!-- Generator: Adobe Illustrator 26.0.3, SVG Export Plug-In . SVG Version: 6.00 Build 0)  -->
<svg version="1.1" id="Laag_1" xmlns="http://www.w3.org/2000/svg" xmlns:xlink="http://www.w3.org/1999/xlink" x="0px" y="0px"
	 viewBox="0 0 500 500" style="enable-background:new 0 0 500 500;" xml:space="preserve">
<style type="text/css">
	.st0{fill:#06090E;}
	.st1{fill:#AE1B27;}
	.st2{fill:#FEFEFE;}
	.st3{fill:#1E448A;}
</style>
<g>
	<path class="st0" d="M256.7,500.9c-122.8,0-245.6,0-368.4,0.1c-5,0-6.2-0.8-6.2-6.1c0.2-162.9,0.2-325.8,0-488.6
		c0-5.9,1.8-6.3,6.7-6.3c245.8,0.1,491.7,0.1,737.5,0c5.2,0,6.6,0.9,6.6,6.4c-0.2,162.6-0.2,325.3,0,487.9c0,6-1.8,6.7-7.1,6.7
		C502.8,500.8,379.7,500.9,256.7,500.9z"/>
	<path class="st1" d="M-116,167.6C-116,114.1-116,60.5-116.2,7c0-4.4,1.8-5.7,5.8-5.3c1.7,0.2,3.5,0,5.2,0c241.8,0,483.7,0,725.5,0
		c12.4,0,10.9-1.6,10.9,10.5c0,51.8-0.1,103.6-0.2,155.4c-1.8,2.4-4.4,3.1-7.2,3.2c-3.5,0.2-7,0.2-10.5,0.2
		c-237.2,0-474.4,0-711.6-0.1C-104.2,170.9-110.9,172.9-116,167.6z"/>
	<path class="st2" d="M-116,167.6c217.6,0,435.2,0,652.8-0.1c31.4,0,62.7,0,94.1,0.1c0,55.3,0,110.6,0,165.8
		c-1.8,2.5-4.3,3.1-7.2,3.2c-3.5,0.2-7,0.2-10.5,0.2c-237.2,0-474.4,0-711.6-0.1c-6,0-12.6,2.1-17.6-3.3
		C-115.9,278.2-116,222.9-116,167.6z"/>
	<path class="st3" d="M-115.9,333.4c249,0,497.9,0,746.9,0c0.1,53.3,0,106.6,0.3,159.8c0,6.9-4,6-8.2,6c-60.2,0-120.5,0.1-180.7,0.1
		c-182.7,0-365.5,0-548.2-0.1c-11.5,0-10.3,1.2-10.3-10.5C-116.1,437-116,385.2-115.9,333.4z"/>
</g>
</svg>
