<?xml version="1.0" encoding="utf-8"?>
<!-- Generator: Adobe Illustrator 26.0.3, SVG Export Plug-In . SVG Version: 6.00 Build 0)  -->
<svg version="1.1" id="Laag_1" xmlns="http://www.w3.org/2000/svg" xmlns:xlink="http://www.w3.org/1999/xlink" x="0px" y="0px"
	 viewBox="0 0 333.9 397.3" style="enable-background:new 0 0 333.9 397.3;" xml:space="preserve">
<style type="text/css">
	.st0{fill:#DDDDDD;}
</style>
<g>
	<path class="st0" d="M65,338.4c9.9-2.5,17.5-7.9,21.6-17.5c0.6-1.5,1.6-2.3,3.1-2.9c5.8-2.3,11.7-4.7,17.4-7.3c2-0.9,3.1-1,4.1,1.4
		c13.2,32.9,39.8,50.6,71.6,62.2c2.5,0.9,6,0.3,7.1,3.9c-21.2-6.8-41.1-16.1-57.4-31.7c-9.5-9.1-16.9-19.6-21.8-31.7
		c-1.1-2.7-2.2-3.7-4.9-1.8c-1.8,1.2-3.8,1.9-5.9,2.6c-6.6,2.3-12.3,5-15.8,12c-3.1,6.2-9.5,9.5-16.3,11.4
		C66.8,339.3,65.6,340.2,65,338.4z"/>
	<path class="st0" d="M203.9,347.4c-17.3-5.1-33.8-11.8-47.3-24.3c-3-2.8-6.8-5.3-7.7-9.9c9.3,10.3,19.8,19,32.7,24.5
		c0.7,0.3,1.5,0.5,2.3,0.8c6.8,2,13.9,3.1,19.9,7.1C203.9,346.2,203.9,346.8,203.9,347.4z"/>
	<path class="st0" d="M140,295.8c-1.4-1.7-2.2-3.6-0.2-5.1c13.7-10.6,24.8-23.8,35.2-37.5c0.8,2-0.9,3-1.8,4.3
		c-7.4,11-16.6,20.3-26.2,29.4c-1.6,3.2-5.5,4.9-6.3,8.7C140.5,295.4,140.2,295.5,140,295.8z"/>
	<path class="st0" d="M96,169.9c-13.4,12.6-24.9,26.8-36,41.4c-0.5-1.1,0-1.9,0.6-2.7c10-14.1,20.8-27.4,34-38.8
		C95.1,169.5,95.6,169.5,96,169.9z"/>
	<path class="st0" d="M51.1,224.7c-0.2,3.1-2.4,5.3-3.8,7.8c-5.4,10-10.4,20.3-15.2,31.4c-1.1-2.5,0.5-3.7,0.6-5.2
		c4.7-10.2,9.4-20.3,15.2-30C48.8,227.3,49,225.2,51.1,224.7z"/>
	<path class="st0" d="M298.9,93.2c-13,3.5-21.1,11.7-24,24.9c-2-1-0.8-2.6-0.4-3.8c3.8-12.1,11.6-19.9,24.4-22.1
		c0.3,0.2,0.4,0.4,0.3,0.6C299.1,93.1,299,93.2,298.9,93.2z"/>
	<path class="st0" d="M146,70.2c0.6,1.4-0.7,2.1-1.4,2.9c-7.4,9.5-11.1,20.5-13.6,32c-0.3,0.4-0.6,0.5-0.9,0
		c1.3-12.6,6.3-23.8,14-33.8C144.6,70.8,145,69.8,146,70.2z"/>
	<path class="st0" d="M203.9,345.6c-6.9-1.6-13.6-3.8-19.9-7.1c6.7-0.8,12.6,1.5,18.5,4.1C203.6,343.1,204,344.3,203.9,345.6z"/>
	<path class="st0" d="M78.9,36.3c4.1,9.9,10.9,16.6,21.9,18.4c2.8,0.5,5.5,0.1,8.3-0.2c0.5,0.1,0.9,0.4,1.1,0.8
		C96.8,59.4,81,50,78.1,36.3l0.4-0.3L78.9,36.3z"/>
	<path class="st0" d="M16.1,110.1c-0.8,2.4-3.2,3.1-4.7,4.7c-7.1,7.8-9.3,16.9-7.4,27.2c-3.7-3.5-2.1-7.9-1.7-11.9
		c0.7-6.7,4.2-12.3,8.6-17.2C12.5,111.5,13,108.5,16.1,110.1z"/>
	<path class="st0" d="M249,119.3c-4.1-11.2-9.6-21.7-15-32.2c6,5.9,8.8,13.7,12,21.1C247.5,111.7,249.8,115.2,249,119.3z"/>
	<path class="st0" d="M30,268.8c-1.1,4.7-2.9,8.6-7.9,10.8c-6.3,2.9-9.1,9-11.9,14.9c-0.3,0.4-0.6,0.4-0.9,0
		c-0.1-0.3-0.2-0.6-0.2-0.9c0.5-3.1,0.7-6.4,4-8.1c3.2-3.5,6.5-7,11.1-8.9c1.7-0.7,2.2-2.2,3-3.7C27.9,271.5,27.6,269.2,30,268.8z"
		/>
	<path class="st0" d="M234,87.2c-4.2-3.1-6.1-8-9.7-11.6c-3.2-3.2-6.1-6.6-9.3-9.7c-1.7-1.6-2.8-3.3-2.1-5.7c0.3-0.3,0.6-0.3,0.9,0
		c-0.1,2.4,1.3,3.9,2.9,5.4c5.6,5.3,10.6,11.1,15.1,17.4C232.8,84.3,234.3,85.3,234,87.2z"/>
	<path class="st0" d="M223.9,225.7c9.3-3.1,16.7-8.3,20.6-17.6c0.7-1.6,1.7-2.4,3.4-2.3c0.3,0.2,0.4,0.5,0.3,0.7
		c-0.1,0.2-0.2,0.4-0.3,0.4c-1.9,0.5-2.2,2.3-3,3.7c-4.6,8.6-11.3,14.2-21,16.1c-0.3-0.2-0.5-0.4-0.4-0.6
		C223.7,225.8,223.8,225.7,223.9,225.7z"/>
	<path class="st0" d="M35.1,328.5c1.5-0.3,2.7-0.2,3.9,1.1c6.8,7.2,15.3,9.8,25,8.9c-1.4,2.7-3.9,1.8-6,1.6
		c-7.5-0.6-14-3.4-19.4-8.6C37.5,330.4,36.3,329.4,35.1,328.5z"/>
	<path class="st0" d="M177,251.2c-0.8-1.9,0.8-3.1,1.6-4.4c3.6-6.1,7-12.2,9.7-18.8c0.9-2.3,2.2-3.9,4.8-4.3
		c0.4,0.2,0.5,0.5,0.4,0.7c-0.1,0.2-0.2,0.4-0.3,0.4c-2.1,0.9-3,2.7-3.9,4.7C185.7,237.1,182.3,244.7,177,251.2z"/>
	<path class="st0" d="M10.1,308.3c3.6,9.5,10.1,16.1,20,19.2c-0.3,0.7-0.9,0.9-1.6,0.8C21,327,10.8,317,9.3,309.4
		C9.2,309.1,9.8,308.7,10.1,308.3z"/>
	<path class="st0" d="M193,224.9c0-0.4,0-0.7,0-1.1c4.2-3.2,8-4,13.1-0.5c5.2,3.6,11.7,2.6,17.9,2.4c0,0.3,0,0.6,0,0.9
		c-7.8,1.1-15.3,0.6-22-3.8C198.1,220.3,196.2,225.2,193,224.9z"/>
	<path class="st0" d="M279.9,188.9c3.2-4.5,8.2-6.9,11.8-10.9c3-3.3,6.1-6.4,9.2-9.7c0.4,0.9,0.2,1.6-0.4,2.2
		C294.3,177.4,288.5,184.7,279.9,188.9z"/>
	<path class="st0" d="M265.4,157c-2.2,2-2.1-0.6-2.4-1.3c-1.7-4.7-4.7-8.6-8.3-12c-2.8-2.6-2.9-6-1.8-9.5c0.6,5.2,3,9.3,6.9,12.9
		C262.6,149.7,263.6,153.6,265.4,157z"/>
	<path class="st0" d="M275,126c1.4,4.2,2.3,8.6,5.1,12.2c0.8,1.1,0.7,2,0,3.1c-2.1,3.3-3.9,6.8-7.2,9.3c0-3.5,3.1-5.1,4.6-7.7
		c1.2-2,1.5-3.6,0.2-5.8C275.9,133.7,273.4,130.3,275,126z"/>
	<path class="st0" d="M333.9,120c-1.1-0.1-1.2-1-1.3-1.8c-1.4-8.8-6-15.5-13-20.7c-0.1-0.5,0.2-0.8,0.7-0.7c1.6,1.1,3.1,2.1,4.7,3.2
		C330.1,105.7,333.8,112.1,333.9,120z"/>
	<path class="st0" d="M243.1,397.2c0.1-1.2,1.1-1.6,2-1.9c7.7-2.9,12.8-8.5,15.9-16c0.3-0.4,0.7-0.4,1,0
		C259.1,388.9,252.8,394.8,243.1,397.2z"/>
	<path class="st0" d="M16.1,110.1c-2.5-0.5-3.2,2.3-5.1,2.8c0.7-6.1,6.7-9.5,13.4-7.6C22.3,108,18.4,107.7,16.1,110.1L16.1,110.1z"
		/>
	<path class="st0" d="M248,206.8c0-0.4,0-0.7,0-1.1c7.7-3.6,15.4-7.3,23.1-10.9C264.4,200.8,256,203.4,248,206.8z"/>
	<path class="st0" d="M256.1,350.4c6.3,0.7,8.6,4.5,6.8,11.1c-2.4-1.4-2-4.5-4-6.2l0.1,0.1C258.4,353.5,255.5,353,256.1,350.4z"/>
	<path class="st0" d="M176.2,35.3c-0.8,1.1-2.1,1.5-3.1,1c-6-3.2-12.8-4.6-18.2-9c5,0.9,9.2,3.5,13.7,5.5
		C171.1,33.9,173.5,35.1,176.2,35.3z"/>
	<path class="st0" d="M234,342.4c-5.9,2.2-12,3.5-17,7.8c-1.1,0.9-3.2,0.4-3.8-1.7c2.4,0.6,4.2-0.2,6.2-1.6
		C223.7,343.9,228.4,341.5,234,342.4z"/>
	<path class="st0" d="M256.1,350.4c0.6,1.9,3.3,2.6,2.9,5.1c-4.8-5.8-11.4-9.2-17.8-12.9C247,343.5,251.8,346.5,256.1,350.4z"/>
	<path class="st0" d="M110.2,55.3c-0.4-0.3-0.7-0.5-1.1-0.8c1.9-0.6,4-0.8,5.5-1.9c4.8-3.4,9.1-1.9,13.5,0.6
		C121.9,51.4,116,53.3,110.2,55.3z"/>
	<path class="st0" d="M88.1,7.4c-4.4,5-8.4,10.3-10,17c-0.3,0.4-0.6,0.4-0.9,0C78.6,17.3,81,10.8,88.1,7.4z"/>
	<path class="st0" d="M143,58.4c0.6,0.2,1.3,0.4,1.8,0.7c2.7,1.3,7.6,1.6,7.7,4.2c0.1,2.8-3.6,5.3-6.6,7.1c0.3-3.1,3.5-4.1,4.7-6.9
		c-1.9-2.2-5.4-2.1-7.7-4.1c-0.4-0.2-0.5-0.4-0.3-0.7C142.8,58.5,142.9,58.4,143,58.4z"/>
	<path class="st0" d="M131.9,20.3c-2-0.7-3.8-1.6-4.7-3.9c-1.6-4.2-5.7-6.6-8.3-10.1c2.8-0.1,4.1,2.1,5.5,3.7
		C127.2,13.3,129.5,16.9,131.9,20.3z"/>
	<path class="st0" d="M212.9,386.3c4.8,4.6,10.3,8.1,16.2,11C222,396.2,216.3,392.9,212.9,386.3z"/>
	<path class="st0" d="M303.9,165.5c2.5-6,5.1-11.9,10-16.5c0.4,0.2,0.5,0.4,0.4,0.7c-0.1,0.2-0.2,0.3-0.3,0.3
		C310.2,155,308.6,161.2,303.9,165.5z"/>
	<path class="st0" d="M4.1,142.8c2.3,5.7,6.2,10.5,10,15.2C8.2,154.6,4.5,149.8,4.1,142.8z"/>
	<path class="st0" d="M78.9,144.9c4.4-1.4,8.8-1.2,13.2-0.1c0.3,0.2,0.4,0.5,0.3,0.8c-0.1,0.3-0.2,0.4-0.3,0.4
		c-4.1,0-8.1,0-12.2-0.1C79.4,145.6,79.1,145.3,78.9,144.9z"/>
	<path class="st0" d="M140.8,295.5c-1.7-5.6,4.1-5.9,6.3-8.7C147.4,291.4,143.2,292.8,140.8,295.5z"/>
	<path class="st0" d="M102.1,2.4C97,3,92.7,5.8,88,7.4C91.6,3.2,98,0.9,102.1,2.4z"/>
	<path class="st0" d="M49,159c3.9-3.7,6.6-8.6,10.9-12C57.3,152,54.7,156.9,49,159z"/>
	<path class="st0" d="M207,45.3c-4.2-2.9-7.8-6.7-12.6-8.9C200.6,36.6,204.2,40.4,207,45.3z"/>
	<path class="st0" d="M213.8,60.3c-0.3,0-0.6,0-0.9,0c-1.1-5.3-3.8-10.1-5.9-15C212,49,212.7,54.7,213.8,60.3z"/>
	<path class="st0" d="M51.9,111.8c-2.2,1.3-3.3-0.8-4.6-1.6c-2.9-1.9-6.3-2.5-9.2-4c-0.3-0.2-0.5-0.4-0.3-0.6
		c0.1-0.2,0.2-0.3,0.3-0.3C43.3,106,47.9,108.4,51.9,111.8z"/>
	<path class="st0" d="M92.1,145.9c0-0.4,0-0.8,0-1.2c3.1,0.1,6.3,0.1,9.4,0.3c1.6,0.1,4-0.6,4.4,1.1c0.4,1.5-1,3.3-2.9,3.9
		c1.1-3,0.3-4.2-3-3.9C97.4,146.3,94.7,146,92.1,145.9z"/>
	<path class="st0" d="M262.1,379.3c-0.3,0-0.7,0-1,0c1.8-5.3,1.9-10.6,0.9-16C265.6,368.6,264.2,374,262.1,379.3z"/>
	<path class="st0" d="M147.6,310.6c-5.2-3.2-5.8-8.9-7.5-13.9C143.8,300.6,144.6,306.2,147.6,310.6z"/>
	<path class="st0" d="M13.1,285.6c-1.3,2.7-2.6,5.4-4,8.1C7.5,287.5,7.9,286.7,13.1,285.6z"/>
	<path class="st0" d="M23.1,162.1c4.6,1.2,9.3,2.1,14.1,1.1c0.5,0.2,1,0.3,1.2,0.9c-5.2,1.6-10.3,1.3-15.3-1
		c-0.3-0.2-0.4-0.5-0.3-0.7C22.8,162.2,23,162.1,23.1,162.1z"/>
	<path class="st0" d="M130.1,105.1c0.3-0.1,0.6-0.1,0.9,0c-0.1,3.1-0.2,6.2-0.4,9.2c-0.1,1.2-0.4,2-1.6,0.7
		C130.1,111.8,128.2,108.3,130.1,105.1z"/>
	<path class="st0" d="M119.1,6.4c-4.2-2-9-2.3-12.9-5C110.9,2.1,115.7,2.3,119.1,6.4z"/>
	<path class="st0" d="M9.3,294.6c0.3,0.1,0.6,0.1,0.9,0c-0.1,3.6-0.9,7.1-0.2,10.7c-3.3-0.7-1.2-3.2-1.4-4.8
		C8.3,298.6,9,296.6,9.3,294.6z"/>
	<path class="st0" d="M189.1,34.3c-4,0.3-8,0.7-12,1C180.8,31.9,184.9,33.2,189.1,34.3z"/>
	<path class="st0" d="M38.3,164.1c-0.4-0.3-0.8-0.6-1.2-0.9c4.3-0.5,7.9-3.2,12-4.3C46.5,162.6,42.4,163.3,38.3,164.1z"/>
	<path class="st0" d="M96,169.9c-0.5,0-0.9,0-1.4-0.1c2.3-1.9,3.9-4.1,3.5-7.3c-0.2-1.6,0.2-3.2,1.3-4.5l0.4,0
		C98.4,161.9,101.1,167.1,96,169.9z"/>
	<path class="st0" d="M66.9,112.9c-4.3,0.4-8.5,0.8-12.8,1.2c3.5-3,7.8-1.6,11.8-2C67,111.5,67.1,112,66.9,112.9z"/>
	<path class="st0" d="M16,110.1c1.8-3.4,5.7-3.1,8.4-4.8c0.5,0,1.1,0,1.6,0c0.3,0.2,0.4,0.4,0.3,0.5c-0.1,0.2-0.2,0.3-0.3,0.3
		C22.7,107.5,19.4,108.8,16,110.1z"/>
	<path class="st0" d="M107.1,113c-4-0.2-8.2,0.1-11.9-1.9c2.9,0,5.9,0,8.8,0c1,0.6,2.2-0.2,3.1,0.7
		C107.3,112.2,107.3,112.6,107.1,113z"/>
	<path class="st0" d="M77.2,24.4c0.3,0,0.6,0,0.9,0c-0.1,4-0.2,8,0.8,11.9l-0.4,0l-0.4,0.1C76.2,32.5,77.1,28.4,77.2,24.4z"/>
	<path class="st0" d="M107,112.1c-1-0.3-2.1-0.6-3.1-1c2.2-1.1,4.7-4.3,6.1,0.8C109.1,112.9,108.1,112.7,107,112.1z"/>
	<path class="st0" d="M270.9,194.9c2.5-2.8,5.5-4.9,9.1-6.1C277.7,191.9,274.7,194,270.9,194.9z"/>
	<path class="st0" d="M327.9,139.1c1.1-2.7,2-5.4,3.5-7.9c0.7-1.2,1.2-0.1,1.3,0.8C330.9,134.2,331,137.7,327.9,139.1z"/>
	<path class="st0" d="M146.8,23.4c0.8,0.5,1.5,1,2.9,2c-4.4-0.1-7.4-2.1-10.7-3.1C141.9,20.3,144.1,23.9,146.8,23.4z"/>
	<path class="st0" d="M78.9,144.9c0.3,0.3,0.7,0.6,1,0.9c-4.3,0.1-8.5,0.1-12.8,0.2C70.9,144,75,145.2,78.9,144.9z"/>
	<path class="st0" d="M23.1,162.1c0,0.3,0,0.7,0,1c-3.5-0.8-6.9-1.9-9-5.2C17.1,159.3,20.1,160.7,23.1,162.1z"/>
	<path class="st0" d="M320.9,146c1.9-2.8,4.3-5.1,7.1-7.1C326.8,142.5,324.5,144.9,320.9,146z"/>
	<path class="st0" d="M143,58.4c0,0.3,0,0.6,0,1c-2.4-0.7-4.8-1.4-7.3-2.1c-0.5-0.4-1.3-0.9-1.3-1.3c0-0.9,0.9-0.6,1.4-0.5
		C138.2,56.4,140.6,57.4,143,58.4z"/>
	<path class="st0" d="M206.1,381.4c3.2,0.4,6.6,0.6,6.9,5C210.7,384.7,208.4,383,206.1,381.4z"/>
	<path class="st0" d="M26.1,106.1c0.1-0.3,0.1-0.5,0-0.8c4-0.7,8-0.5,11.9-0.1c0,0.3,0,0.6,0,1C34.1,106.2,30.1,106.2,26.1,106.1z"
		/>
	<path class="st0" d="M56.1,216.2c-0.3,3.7-2.5,6.2-5.1,8.6C51.7,221.4,53.8,218.7,56.1,216.2z"/>
	<path class="st0" d="M66.9,112.9c-0.3-0.3-0.6-0.6-1-0.8c2.8-0.9,5.5-2.1,8.2,0.1C71.8,112.4,69.4,112.6,66.9,112.9z"/>
	<path class="st0" d="M273.1,150.8c-1.7,2.3-3.6,4.4-5.9,6.1C267.4,153.2,269.8,151.6,273.1,150.8z"/>
	<path class="st0" d="M99.7,158l-0.4,0c0.3-3.1,0.8-6.1,3.7-8.1C102.8,153,101,155.4,99.7,158z"/>
	<path class="st0" d="M107,112.1c1-0.1,2-0.1,3-0.2c1.6,0.4,3.2,0.8,4.8,1.2c-2.6,1.5-5.2-0.5-7.8-0.2
		C107,112.7,107,112.4,107,112.1z"/>
	<path class="st0" d="M258.9,355.3c2.7,1.2,2.3,4.3,4,6.2c-0.3,0.4-0.6,0.7-0.9,1.1C260.7,360.3,259.1,358.1,258.9,355.3z"/>
	<path class="st0" d="M298.9,93.2c0-0.3,0-0.6,0-0.9c3.4,0.1,7-1.6,10.1,0.9C305.7,93.2,302.3,93.2,298.9,93.2z"/>
	<path class="st0" d="M313.9,150c0-0.3,0-0.7,0-1c2.4-0.8,4.3-2.9,7-3.1C319.5,148.8,316.7,149.4,313.9,150z"/>
	<path class="st0" d="M64.1,219.2c0.8,1.5-0.4,2.5-1.1,3.5c-11.5,17.8-20.6,36.8-27.8,56.7c-0.3,0.8-0.7,1.5-1.1,2.2
		c-1-0.7-0.9-1.7-0.5-2.7c8-20.5,17.1-40.4,29.4-58.8C63.2,219.8,63.7,219.5,64.1,219.2z"/>
	<path class="st0" d="M244,198.1c21.6-8.4,40-21,54-39.7c0.8,1.6-0.5,2.5-1.2,3.5c-13.7,17.8-31.6,29.8-52.7,37.3
		c-0.3-0.2-0.4-0.5-0.3-0.7C243.8,198.2,243.9,198.1,244,198.1z"/>
	<path class="st0" d="M107,166.7c1.5,2.1,1.4,3.8-0.7,5.5c-15.2,13.1-28.2,28.1-39.5,44.6c-0.2,0.2-0.5,0.3-0.8,0.5
		c-0.8-2,0.9-3,1.8-4.3c9.8-14.5,21.6-27.2,34.2-39.3c1-1.9,2.7-3.3,4.1-4.9C106.4,168.2,106.7,167.4,107,166.7z"/>
	<path class="st0" d="M189,351.2c-18.8-6.8-35.7-16.5-47.8-33c-1-1.4-2.7-2.6-2.3-4.7c4.6,4.6,8,10.2,12.8,14.7
		c10.9,10,23.9,16.3,37.3,22c0.3,0.3,0.4,0.5,0.2,0.8C189.2,351.1,189.1,351.2,189,351.2z"/>
	<path class="st0" d="M131,294.7c-2.3-4.1-1.6-6.9,2.5-9.9c12.7-9.4,23.3-20.9,32.4-33.8c0.9-1.2,1.2-3.1,3.1-3.4
		c-3.7,8.6-10.3,15.1-16.4,21.9c-4.3,4.7-9.2,9-14.1,13.2C134.7,286,129.8,288.4,131,294.7z"/>
	<path class="st0" d="M117,305.4c4.6,10.7,9.8,20.9,17.8,29.6c4.8,5.1,10,9.7,15.6,13.8c1,0.7,2.6,0.9,2.6,2.6
		c-3.6-0.6-5.9-3.3-8.6-5.4c-12.1-9.7-21.4-21.6-26.9-36.2C117.1,308.4,115.6,307.1,117,305.4z"/>
	<path class="st0" d="M187.1,42.3c-7.6,1.3-14.7,4.5-22.7-0.4c-10-6.1-21.6-9-32.5-13.2c-0.4-0.5-0.4-0.9,0.1-1.2
		c12.8,4,25.2,8.8,37.1,14.8c2.7,1.4,4.9,1.7,7.8,0.6C180.1,41.6,183.6,41,187.1,42.3z"/>
	<path class="st0" d="M289.9,137.1c1.7,1.1,0.6,2.4,0.1,3.4c-6.3,12.4-15.1,22.6-27,29.9c-0.2-2.4,2-2.7,3.2-3.8
		c9.8-7.9,18.4-16.7,22.9-28.7C289.2,137.6,289.5,137.3,289.9,137.1z"/>
	<path class="st0" d="M161.8,65.3c0,0.6,0.2,1.5-0.1,1.8c-10,8.4-16.5,19-20.9,31.1c-0.2,0-0.4,0-0.7,0
		C143.3,84.6,151.2,74,161.8,65.3z"/>
	<path class="st0" d="M153,351.4c3.7,0.6,6.3,3.2,9.4,4.9c7.9,4.4,16.4,7.4,24.6,11.1c-0.8,1.2-1.8,0.5-2.6,0.2
		c-10.7-3.7-20.9-8.5-30.4-14.7C153.4,352.5,152.7,352.2,153,351.4z"/>
	<path class="st0" d="M239.7,118.2c-4.4-10.8-9.4-21.3-16.5-30.6c-0.3-0.4-0.2-1.2-0.2-1.8c8.5,9.3,13.7,20.5,17.8,32.3
		C240.4,118.6,240.1,118.6,239.7,118.2z"/>
	<path class="st0" d="M169,247.7c0.7-3.8,3.5-6.5,5.1-9.9c2.7-5.6,5.6-11.2,8.1-16.9c1-2.3,2.1-4,4.9-4c0.3,0.2,0.5,0.4,0.4,0.7
		c-0.1,0.3-0.2,0.4-0.3,0.4c-2,0.6-3,2.1-3.8,4c-3.1,7.8-6.9,15.2-11.3,22.2C171.2,245.6,170.9,247.4,169,247.7z"/>
	<path class="st0" d="M37.8,155c6.6-3.1,12.2-7.2,14.2-14.7c0.1-0.5,0.7-1.3,1.2-1.4c4.2-0.7,8.3-2.7,12.7-0.9
		c-7.4,2.3-11.6,5.1-17.2,11.1C45.9,152.2,42.9,155.5,37.8,155z"/>
	<path class="st0" d="M187.1,218.1c0-0.4-0.1-0.7-0.1-1.1c4.6-1.4,8.4-3.8,11.3-7.6c0.9-1.2,1.7-2.1,2.9-0.3
		c3.4,4.9,8.5,7.1,13.9,8.7c-5.3,1.4-9-1.7-12.3-4.9c-2.3-2.2-3.5-2.9-5.9-0.1C194.5,215.7,191.1,217.7,187.1,218.1z"/>
	<path class="st0" d="M101,11.3c-12.4,3.6-16.2,11.2-12.9,26c-4.6-4.9-3.6-10.5-1.5-15.9c2.4-6,6.8-9.9,13.3-11.2
		C101,9.9,101.2,10.4,101,11.3z"/>
	<path class="st0" d="M299.9,156.5c2.8-6.3,3.5-14,12.2-16c4.3-1,6.8-5,9.8-8c-0.8,5.8-5.6,8-10.1,9.5c-3.7,1.3-5.6,3.2-7,6.6
		C303.6,151.5,302.4,154.5,299.9,156.5z"/>
	<path class="st0" d="M94.9,136.2c2.4-0.2,4.8-0.4,7.1,0.8c-3,1.6-6.1,0.7-9.2,0.7c-5.6,0-11.2,0.1-16.8,0.3
		c-2.3,0.1-4.5,0.1-6.5-1.2c2.5-1,5-0.9,7.6-0.7C83.1,136.8,89,136.7,94.9,136.2z"/>
	<path class="st0" d="M132,27.5c0,0.4-0.1,0.8-0.1,1.2c-5.6-1-10.3-2.6-12.6-9.1c-1.7-4.9-6.7-7.5-12.2-8.4c-0.2-1,0.1-1.4,1.1-1.1
		c5.4,0.9,10.2,3.6,12.1,8.5C122.6,24.4,126.8,26.3,132,27.5z"/>
	<path class="st0" d="M90.1,309.6c7.7-3.7,15.4-7.4,23-11.2c1.8-0.9,2.3-0.2,2.8,1.2c0.4,1.2,0.7,2.5,1.1,3.8
		c-0.2,0-0.4,0.2-0.5,0.1c-3.8-3.1-3.7-3-9.6-0.2c-5.5,2.6-10.9,5.5-16.9,7c-0.4-0.2-0.5-0.3-0.3-0.5
		C89.8,309.7,89.9,309.6,90.1,309.6z"/>
	<path class="st0" d="M219.5,81.2c-5.4-2.4-7.8-8.1-12.5-11.4c-3.8-2.6-3.5-6.1-2.1-9.8c-0.2,7.4,5.6,10.9,9.9,15.5
		C216.5,77.3,218,79.3,219.5,81.2z"/>
	<path class="st0" d="M125.1,145c-7.5,2.1-13.5,6.1-16.4,13.7c-0.2,0.4-1.1,0.6-1.6,0.9c1.8-7.7,9-14.5,16.5-15.6
		C124.5,144,124.9,144.3,125.1,145z"/>
	<path class="st0" d="M30.1,114.1C21,116,15,121.2,12.1,130c-1.1-0.4-1-1.1-0.7-1.9c2.7-7.9,8.3-12.7,16.3-14.8
		C28.7,113,29.7,112.7,30.1,114.1z"/>
	<path class="st0" d="M132.7,143c2.7-1.6,4.9,0.7,7.4,1c3.7,1.3,6.5,3.3,6.2,7.9c-0.3,0.2-0.7,0.4-0.9,0.3
		c-3.6-3.5-8.4-5.3-12.4-8.3C133,143.6,132.9,143.3,132.7,143z"/>
	<path class="st0" d="M95,120.8c-8.5,0.1-17.1,0.1-25.6,0.2c1.7-3,4.4-1.6,6.8-1.6c6,0.7,12,0.1,18,0.3
		C94.9,119.7,95.2,120.1,95,120.8z"/>
	<path class="st0" d="M141,48.6c6.1,2.6,12.2,5.1,18.3,7.7c1.5,0.6,3.2,1.2,2.8,3.4c-6.8-4.7-14.9-6.7-22.2-10.4
		C140.1,48.9,140.5,48.7,141,48.6z"/>
	<path class="st0" d="M213.1,374.4c2.7-0.1,4.5,0.8,5.6,3.7c2,5.3,6.7,7.9,11.3,10.5c0,0.2,0,0.4,0,0.6c-4.6-0.6-8-3.4-10.5-6.9
		C217.6,379.4,215.9,376.4,213.1,374.4z"/>
	<path class="st0" d="M18.1,305.4c2.3,7,7.1,11.5,14,14.1c0.3,0.2,0.5,0.3,0.4,0.5c-0.1,0.2-0.2,0.3-0.3,0.3
		c-7.5-1.4-12.2-6-14.7-13C17.2,306.5,17,305.8,18.1,305.4z"/>
	<path class="st0" d="M322,109.1c0.6,2.1,2.5,3.8,2.1,6.5c-3.3-6.6-7.9-11.5-15.1-13.6c-0.2-0.2-0.3-0.5-0.2-0.7
		c0.1-0.2,0.2-0.3,0.2-0.3C314.7,101.4,318.3,105.4,322,109.1z"/>
	<path class="st0" d="M257,164.2c-1.8-6.8-4.6-13-11.1-16.7c-0.2-0.1,0.1-0.9,0.1-1.3C252.7,150.3,257.9,155.4,257,164.2z"/>
	<path class="st0" d="M255,369.4c-2.1-6.9-4.9-13.3-12.1-16.5c-0.3-0.3-0.3-0.6-0.2-0.8c0.1-0.3,0.2-0.4,0.3-0.4
		C251.3,355.5,255.5,361.6,255,369.4z"/>
	<path class="st0" d="M56.1,122.1c-3.8,1.7-7.2,1.6-9.8-2.2c-2-2.8-6.1-3-8.1-5.8c3.4,0,6.2,1.7,8.2,4c2.8,3.4,5.9,4.1,9.8,3.1
		c0.3,0.2,0.4,0.4,0.3,0.6C56.3,122,56.2,122.1,56.1,122.1z"/>
	<path class="st0" d="M229.1,352.4c-2.8,1.7-5.3,3.6-7.9,5.6c-3.8,3-7.7,0.7-11.1-1.6c0.2,0,0.3-0.1,0.5,0c5,1.6,9.7,2.2,13.6-2.7
		c0.8-1.1,2.6-1.4,3.9-2.1C228.5,351.8,228.8,352,229.1,352.4z"/>
	<path class="st0" d="M13.1,142.8c3.2,5.7,7.8,9.9,14,12.1c0.3,0.2,0.5,0.4,0.3,0.6c-0.1,0.2-0.2,0.3-0.3,0.3
		c-6.2-1.2-10.6-5-13.8-10.2C12.9,145,11.4,143.9,13.1,142.8z"/>
	<path class="st0" d="M133,143.9c5.1,1.6,9.1,5.2,13.4,8.2c0.7-0.1,0.9,0.2,0.7,0.9c-0.3,0.6-0.7,1.7-1.2,1.1
		c-4.2-5-10.2-7.1-15.7-10C131.1,144,132,143.9,133,143.9z"/>
	<path class="st0" d="M242,389.3c0-0.2-0.2-0.4-0.1-0.5c5.4-3.4,9-8.6,13-13.4C253,382.2,248.5,386.6,242,389.3z"/>
	<path class="st0" d="M309,101c0,0.3,0,0.7,0,1c-6.6-2.1-12.2,0.9-18,3.1C296,99.8,302.1,98.9,309,101z"/>
	<path class="st0" d="M218,217.8c6.3-0.2,11.1-3.7,16-7C230.7,216.4,223,219.8,218,217.8z"/>
	<path class="st0" d="M244,198.1c0,0.4,0.1,0.8,0.1,1.1c-3.2,1.1-5.4,2.9-6.3,6.6c-0.5,1.9-1.2,4.5-3.9,5.1c0.8-3.5,3.3-6.2,4.2-9.8
		C238.7,198.7,242,199.1,244,198.1z"/>
	<path class="st0" d="M106.1,46.4c3.5-0.3,6.6-1.6,9.3-3.9c2.5-2.1,4.6-2,6.5,0.7c-2.6-0.8-4.9-0.6-7.1,1.4
		c-1.8,1.6-4.2,2.6-6.7,2.7C107.2,47.7,106.1,48.3,106.1,46.4z"/>
	<path class="st0" d="M64,330.3c5-1.8,9.4-4.5,13-8.4c-1.9,6.5-7.5,7.8-13,9.4c-0.3-0.2-0.4-0.4-0.3-0.6
		C63.8,330.4,63.9,330.3,64,330.3z"/>
	<path class="st0" d="M139,121c0.4,2,2.2,5.2,0.3,5.7c-2.5,0.6-6.2,0.6-8.1-2.6c0.8,0.1,1.7,0.1,2.4,0.4c3.5,1.4,5,0.3,4.6-3.5
		C138.5,120.6,138.7,120.6,139,121z"/>
	<path class="st0" d="M204,58.3c-1.7-4.7-4.9-8.3-8-12.1c0.3-0.3,0.6-0.5,1-0.3c3.3,2.9,6.1,6.2,7.5,10.5
		C204.7,57.3,205.1,57.9,204,58.3z"/>
	<path class="st0" d="M42.1,320.5c2.8,3.5,6.1,6.5,10.1,8.6c0.3,0.3,0.3,0.6,0.2,0.8c-0.1,0.2-0.2,0.4-0.3,0.4
		c-4.9-1.8-8.7-5-11.1-9.7C41.3,320.2,41.7,320.2,42.1,320.5z"/>
	<path class="st0" d="M103.1,137.1c5,0.1,10,0.6,14.9,2C112.8,139.9,107.9,139,103.1,137.1z"/>
	<path class="st0" d="M25.1,286.6c-2.6,3.8-6,7.2-7,12C16.9,294.2,20,288.9,25.1,286.6z"/>
	<path class="st0" d="M90.1,309.6c0,0.2,0,0.5,0,0.7c-4.3,1.8-9.2,2.8-11,8.1C79.1,311,85,310.8,90.1,309.6z"/>
	<path class="st0" d="M118.9,123c-4.4-1.6-9.6,0-13.7-2.9C109.8,121,114.9,119.6,118.9,123z"/>
	<path class="st0" d="M291,105.1c-2.6,3.9-6.1,7.2-7.1,12c-0.9,0.1-1.5,0-0.9-1.1C284.4,111.5,286,107,291,105.1z"/>
	<path class="st0" d="M95,119.9c-6.2-0.3-12.5,0.8-18.8-0.6c6.3,0,12.5,0,18.8-0.1C95,119.4,95,119.7,95,119.9z"/>
	<path class="st0" d="M230,389.1c0-0.2,0-0.4,0-0.6c3.3-0.1,6.6,1.1,9.9-0.2C236.9,392.2,233.4,390.1,230,389.1z"/>
	<path class="st0" d="M139.1,313.6c-3.9-4.1-5.9-8.9-5-12.1C135.7,305.5,137.4,309.5,139.1,313.6z"/>
	<path class="st0" d="M89,39c2.8,3.4,7.4,4.6,9.9,8.3C94.9,45.4,90.2,44.2,89,39z"/>
	<path class="st0" d="M141,48.6c-0.4,0.2-0.7,0.5-1.1,0.7c-4-1.4-8.5-1.7-11.8-5C132.6,45.2,136.7,47.1,141,48.6z"/>
	<path class="st0" d="M229.1,352.4c-0.3-0.3-0.7-0.5-1-0.8c5-2,9.9-2,14.9,0c0,0.4-0.1,0.8-0.1,1.2
		C238.3,351.2,233.7,351.1,229.1,352.4z"/>
	<path class="st0" d="M140.1,98.2c0.2,0.1,0.4,0.1,0.7,0c-0.6,3.7-1.3,7.3-1.9,11c-0.2,0-0.4,0-0.7,0
		C138.5,105.4,138.6,101.7,140.1,98.2z"/>
	<path class="st0" d="M42.1,320.5c-0.4,0-0.7,0-1.1,0.1c-3-0.1-5.9-0.2-8.9-0.2c0-0.3,0-0.6,0-0.8c1.6,0,3.2-0.2,4.8,0.1
		c2.5,0.3,3.1-1.1,3.2-3.1c1.7-0.4,2.3,0.9,3,2C42.7,319.2,42.4,319.8,42.1,320.5z"/>
	<path class="st0" d="M245,143c-0.3-4-2.4-7.8-1-12C244.7,135,246.7,138.9,245,143z"/>
	<path class="st0" d="M282.9,116c0.3,0.4,0.6,0.7,0.9,1.1c-0.9,3.5-0.8,7,0.2,10.4c-1.6,0.4-1.2-1.3-2-1.6
		C282.1,122.6,281.4,119.2,282.9,116z"/>
	<path class="st0" d="M11.9,131.4c0,2.4,0,4.8,0,7.2C9.4,135.8,9.4,133.9,11.9,131.4z"/>
	<path class="st0" d="M324.9,127.1c-1.2-3.3-0.7-7.7,0.9-8.9C325.8,121.2,326.3,124.2,324.9,127.1z"/>
	<path class="st0" d="M108.3,10.2c-0.4,0.4-0.8,0.7-1.1,1.1c-2,0-4.1,0-6.1,0.1c-0.4-0.3-0.7-0.7-1.1-1
		C102.7,8.9,105.5,8.8,108.3,10.2z"/>
	<path class="st0" d="M119.2,139.1c2.9,0.9,6.6-0.4,8.7,2.9C124.8,141.5,121.5,141.7,119.2,139.1z"/>
	<path class="st0" d="M52.1,330.2c0-0.4,0.1-0.8,0.1-1.2c3.8,1.4,7.8,1.5,11.8,1.3c0,0.3,0,0.6,0,1C60,331.8,56,331.9,52.1,330.2z"
		/>
	<path class="st0" d="M27.1,155.9c0-0.3,0-0.6,0-0.9c3,0.7,6.1-0.5,9,1C33.1,157.1,30.1,156.4,27.1,155.9z"/>
	<path class="st0" d="M106.1,168.9c0.1,2.9-2.6,3.4-4.1,4.9C101.7,170.7,103.1,169.2,106.1,168.9z"/>
	<path class="st0" d="M106.1,46.4c0.7,0.3,1.4,0.6,2,1c-2.5,0.6-5.3,2.7-7.2-1.1C102.7,46.3,104.4,46.4,106.1,46.4z"/>
	<path class="st0" d="M319.6,97.5c-2.5-1.2-5-2.3-8.8-4.1c4.6,0.1,7.1,1.5,9.4,3.4C320,97,319.8,97.3,319.6,97.5z"/>
	<path class="st0" d="M197,45.9c-0.3,0.1-0.7,0.2-1,0.3c0,0,0.1,0.1,0.1,0.1c-1.6-1.9-4.9-1.5-6-4C193.7,41,195.6,43,197,45.9z"/>
	<path class="st0" d="M289.9,137.1c-0.3,0.3-0.6,0.6-0.9,0.9c-1.7-2-3.3-4-5-6c0.7-1.4,1.3-1,2,0
		C287.3,133.7,288.6,135.4,289.9,137.1z"/>
	<path class="st0" d="M260.2,171.9c-1.1,2-3.1,2.5-5.2,3.5c-0.2-2.4,0.3-4.2,2-5.6C256.2,173.4,258.8,171.7,260.2,171.9z"/>
	<path class="st0" d="M189,351.2c0-0.4,0.1-0.7,0.1-1.1c2.9,1.5,7,0.5,8.8,4.3C194.9,353.3,192,352.2,189,351.2z"/>
	<path class="st0" d="M138.2,109.1c0.2,0,0.4,0,0.7,0c0,4,0.1,7.9,0.1,11.9c-0.3,0-0.5,0-0.8,0C138.2,117.1,138.2,113.1,138.2,109.1
		z"/>
	<path class="st0" d="M56.1,122.1c0-0.3,0-0.6,0-0.9c3,0.4,6-2.1,9-0.1C62.1,121.8,59.1,122.4,56.1,122.1z"/>
	<path class="st0" d="M32.6,283.6c-2.5,1-5.1,2-7.6,3C26.9,284,29.3,282.6,32.6,283.6z"/>
	<path class="st0" d="M190,42.3c1.8,1.7,5,1.2,6,4c-2.8-1-5.9-1.3-7.9-4C188.8,42.3,189.4,42.3,190,42.3z"/>
	<path class="st0" d="M95,119.9c0-0.2,0-0.4,0-0.6c1.8,0.4,4.6-1.8,5.2,1.9c-1.7-0.1-3.4-0.2-5.2-0.4C95,120.5,95,120.2,95,119.9z"
		/>
	<path class="st0" d="M239.7,118.2c0.3,0,0.7-0.1,1-0.1c0.7,2.4,2.2,4.6,1.3,7.2C240.5,123.1,240,120.7,239.7,118.2z"/>
	<path class="st0" d="M159,197.1c0,7.3-5.6,12.9-12.9,12.9c-7.5,0-13.2-5.6-13.1-13.1c0.1-7.1,6-12.9,13.1-12.8
		C153.2,184.1,159,190,159,197.1z"/>
	<path class="st0" d="M172,54.4c2.1,0.7,3.3-1,4.8-1.9c6.1-3.6,13.6-2.1,17.6,3.5c4,5.5,2.9,13.5-2.5,17.7
		c-5.4,4.2-13.2,3.5-17.9-1.6c-3.7-4-3.8-8.6-2.2-13.5C172.2,57.2,174.2,55.9,172,54.4L172,54.4z"/>
	<path class="st0" d="M303.3,134.9c-6.5,0.1-12.1-5.6-12.3-12.5c-0.2-7.5,5.4-13.4,12.8-13.4c7.3,0,13,5.5,13.2,12.7
		C317.1,129.1,311.3,134.7,303.3,134.9z"/>
	<path class="st0" d="M128,152.8c7.5,0,12.9,5.3,13,12.7c0,7.2-5.7,13.1-12.7,13.2c-7.1,0.1-13.2-5.9-13.2-13.1
		C115,158.5,120.7,152.8,128,152.8z"/>
	<path class="st0" d="M230.8,197.1c-0.4,8.1-6.1,13.3-14,12.9c-7.2-0.4-12.4-6.4-12-13.8c0.4-6.9,6.4-12.3,13.3-12.1
		C225,184.3,231.2,190.4,230.8,197.1z"/>
	<path class="st0" d="M177,165.6c0,7.2-5.7,13-12.8,13.1c-7,0.1-13-5.9-13.1-12.9c-0.1-7.4,5.6-13.1,13.1-13
		C171.6,152.9,177,158.3,177,165.6z"/>
	<path class="st0" d="M200,152.8c7.4,0,13,5.4,13,12.7c0,7.2-5.6,13.1-12.8,13.2c-7.2,0.2-13.3-6-13.2-13.3
		C187.1,158.1,192.6,152.8,200,152.8z"/>
	<path class="st0" d="M236.1,152.8c7.4,0.1,12.9,5.6,12.8,12.9c0,7.1-5.9,13-12.9,13c-7.3,0-13.2-6-13-13.4
		C223.1,158.1,228.7,152.8,236.1,152.8z"/>
	<path class="st0" d="M181.5,210c-7.2-0.1-12.6-5.7-12.5-13c0.1-7.3,5.8-12.9,13-12.9c7.1,0,13,5.9,13,13
		C195,204.4,189.1,210.1,181.5,210z"/>
	<path class="st0" d="M45.2,136.1c-1.5,7.5-6.4,11.8-13.1,11.7c-6-0.1-11.4-4.7-12.6-10.7c-1.2-5.9,2.2-12.1,8-14.4
		c7.1-2.8,13.6,0.2,17.6,8.4C46,132.7,45.7,134.4,45.2,136.1z"/>
	<path class="st0" d="M56.1,297.6c7.6-1.9,12.4,0.5,16.1,7.8c0.2,0.5,0.8,0.6,0.9,1.1c-0.2,11.3-5.4,17-14.7,16.2
		c-3.3-0.3-6.1-1.7-8.1-4.3c-1.1-1.4-2.4-2-4.2-2c-0.1-4.7-1.3-9.6,1.8-13.9c1.3-1.8,2.5-3.5,4.6-4.4
		C53.7,297.6,55,298.5,56.1,297.6z"/>
	<path class="st0" d="M224.8,367.2c2.6-6.3,6.5-8.7,12.6-7.9c4.8,0.6,8.6,4.5,9.3,9.6c0.7,4.8-2.4,9.8-7.2,11.8
		c-5.9,2.3-11.6-0.5-14.6-7.2C224.4,371.3,224,369.3,224.8,367.2z"/>
	<path class="st0" d="M114.1,32.4c-2.5,4.7-6.2,7.4-11.7,6.5c-4.5-0.8-7.5-3.6-8.3-8.2c-1.1-5.5,2.1-10.4,7.4-11.9
		c5.5-1.6,10.3,1.2,12.7,7.4C114.6,28.3,114.8,30.4,114.1,32.4z"/>
	<path class="st0" d="M40.3,292.3c1,0.7,1.9,1.4,2.9,2.1c0.9,1,2.4,1.1,3,2.4c2.7,7.7-0.1,13.6-7.1,15.1c-10,0.2-15.5-5.7-12.9-13.6
		c1.6-4.8,5.3-6.8,12.9-6.8C39.6,291.6,39.7,292.2,40.3,292.3z"/>
	<path class="st0" d="M125.1,196c-1.1-0.6-0.7-1.6-0.7-2.6c0-2.1,2.9-5.1,0.5-5.9c-3.3-1.2-6.8-3.3-11.1,0.6
		c-28.2,26.3-47.7,58.2-61.4,93.9c-0.4,0.9-0.8,1.8-1.2,2.7c-1-0.7-0.8-1.8-0.5-2.7c14.4-36.5,34-69.5,63.6-96
		c1.9-1.7,11.3-1.4,13.2,0.3c0.8,0.8,0.3,1.4,0.1,2.2C126.6,191,125.8,193.5,125.1,196z"/>
	<path class="st0" d="M39.1,311.9c7.1-4.7,8.5-8.2,5.9-15.3c2.2-4.6,3.8-5.5,7.2-4l-0.1-0.1c1,1.9,2,3.8,1.2,6.1
		c-5.1,3.5-7.2,8.4-5.9,14.3c0.4,1.9-0.6,2.4-1.3,3.5c-0.7,1.2-2,1.5-3.1,2.1c-1.7,0.4-2.1-1.2-3-2
		C39.2,315.1,38.9,313.5,39.1,311.9z"/>
	<path class="st0" d="M131,259.7c-0.2,1.6-0.3,3.2-0.5,5.4c6.8-5.5,12.1-11.7,17.2-18.1c6.6-8.4,11.9-17.5,16.5-27.1
		c2-4.1,3.1-7.7-0.8-11.2c4.4,1.6,5.6,4.1,3.6,8.6c-8.3,18.5-19.7,34.8-34.8,48.4c-0.8,0.7-1.4,1.9-3.2,1.7
		C129.3,264.8,127.8,261.8,131,259.7z"/>
	<path class="st0" d="M157,126.9c0.7,4.2,3.6,5.9,7.4,7.4c6.6,2.5,13,5.7,19.2,9.1c3.5,1.9,6.6,3.4,10.5,1.2
		c0.9-0.5,2.1-1.4,2.9,0.4c-5.4,3.1-10.1,2.4-15.4-1c-6.6-4.3-14.1-7.2-21.6-9.9C156.5,132.8,155.9,130.2,157,126.9z"/>
	<path class="st0" d="M79,295.4c8.7-3.9,17.8-7.2,26.1-12c3.7-2.1,7.9-3.7,6.3-9.4c-0.4-1.6,0.4-3.6,0.6-5.4c0.3-0.4,0.6-0.5,0.9,0
		c0.1,3.3,0,6.6,0.2,9.8c0.1,2.4-1.7,3-3.2,3.9c-9.8,5.8-20,10.6-30.9,14.1c-0.3-0.2-0.5-0.4-0.4-0.7
		C78.8,295.6,78.9,295.4,79,295.4z"/>
	<path class="st0" d="M120.1,232.8c-1.4-0.5-0.9-1.5-0.5-2.4c1.2-3.4,2.2-6.9,3.8-10.2c2.5-5.4,5.2-10.6,2.7-16.7
		c3.1,3.6,3.4,7.1,1.2,11.5C124.3,220.7,122.4,226.9,120.1,232.8z"/>
	<path class="st0" d="M224.8,367.2c0,2.1,0.1,4.1,0.1,6.2c-0.4-5.2-4.6-5.2-8.3-6c-6.3-1.3-12.8-1.9-18.6-5.1l-0.1,0.1
		c7,0.5,13.6,3.3,20.5,4.4C220.6,367.1,222.6,367.4,224.8,367.2z"/>
	<path class="st0" d="M210,97.2c-4.2-3.1-7-7.5-10.4-11.2c-2.7-2.9-5.1-4-8.6-2c-0.3-0.2-0.4-0.4-0.3-0.5c0.1-0.2,0.2-0.2,0.4-0.2
		c3.1-3.2,5.7-2.6,8.5,0.7C203,88.3,207.8,91.7,210,97.2z"/>
	<path class="st0" d="M79,295.4c0,0.3,0,0.7,0,1c-1.9,1.1-3.1,0.5-4.6-1c-6-6-13.3-7.1-21.3-4.9c-0.4-0.2-0.5-0.4-0.4-0.7
		c0.1-0.2,0.2-0.4,0.3-0.4c7.8-2.6,15-1.4,21.3,3.9C75.7,294.5,76.9,296,79,295.4z"/>
	<path class="st0" d="M45.2,136.1c-0.1-1.7-0.1-3.3-0.2-5c8.7-1,17.4-2,26.1-3c0.3,0.2,0.4,0.4,0.3,0.5c-0.1,0.2-0.2,0.3-0.3,0.3
		c-7.1,1-14.2,2.4-21.3,2.9C46.5,132.2,45.6,133.5,45.2,136.1z"/>
	<path class="st0" d="M222.1,119.1c-4-7.3-8.1-14.6-12.1-21.9c6.4,6.1,9.9,13.9,12.8,22C222.5,119.1,222.3,119.1,222.1,119.1z"/>
	<path class="st0" d="M127.9,234.3c-2,8.6-4.1,17.2-6.1,25.9C122.4,251.2,124.4,242.6,127.9,234.3z"/>
	<path class="st0" d="M71.1,129c0-0.3,0-0.5,0-0.8c10.4,0,20.9,0,31.3,0c0,0.3,0,0.5,0,0.8C91.9,129,81.5,129,71.1,129z"/>
	<path class="st0" d="M217,152c4.2-1.2,6.8-5,10.4-7.1c1.7-1-1.8-4.2,0.6-6.1c1.8,4.2,2.2,8-3.2,9.8c-3,1-3.6,5.9-7.8,4.6
		c-0.3-0.3-0.4-0.5-0.3-0.8C216.8,152.1,216.9,152,217,152z"/>
	<path class="st0" d="M164.3,144.6c7.1,1.7,13.4,5,19.2,9.5C177.1,150.9,170.7,147.8,164.3,144.6z"/>
	<path class="st0" d="M120.5,277.9c0.6,3.5,0.4,6.9,5,3.3c-6.9,4.6-1.4,10.2-3.1,16.3C121.7,290.5,118.9,285.1,120.5,277.9z"/>
	<path class="st0" d="M231.2,118.6c3.6,6.3,4.3,13.6,5.5,20.7C234.4,132.6,233.2,125.5,231.2,118.6z"/>
	<path class="st0" d="M110.6,290.4c-5,4.2-10.8,7-17.2,8.5C99.2,296.1,104.9,293.3,110.6,290.4z"/>
	<path class="st0" d="M217,152c0,0.4,0,0.7,0,1.1c-4.1-4.4-9.8-6.2-14.9-9C208.3,144.4,213.2,147.1,217,152z"/>
	<path class="st0" d="M148.4,127.5c0.1,5.7,4.8,10.2,4.6,16.5C148.5,139,149.1,133.1,148.4,127.5z"/>
	<path class="st0" d="M199.6,72.9c4.9,3.8,9,7.9,11.4,11.1C208.1,81.2,203.9,77.1,199.6,72.9z"/>
	<path class="st0" d="M149.7,261c-4.1,4.1-8.3,8.1-11.1,10.4C141.2,269,145.4,265,149.7,261z"/>
	<path class="st0" d="M147.9,110c0,3.5,0,7,0,10.5c-0.4,0-0.8,0-1.3,0c-0.9-3.8-1.3-7.6,0.3-11.4C147.6,109,147.5,109.7,147.9,110z"
		/>
	<path class="st0" d="M123,34.3c6.4,0.3,11.9,3.4,17.7,5.7C134.7,38.5,128.6,37.2,123,34.3L123,34.3z"/>
	<path class="st0" d="M172.1,54.3c-5.3-2.4-10.6-4.9-15.9-7.3C161.9,48.6,167.7,50,172.1,54.3C172,54.4,172.1,54.3,172.1,54.3z"/>
	<path class="st0" d="M172.6,81.2c-5,1.8-6.5,7.2-10.6,10c1.1-4.8,5.1-7.5,8.3-10.8C171,79.6,172.1,80,172.6,81.2z"/>
	<path class="st0" d="M73.1,306.5c-0.7,0-1-0.5-0.9-1.1c5.5,0.2,10.1-3.2,15.5-3.6C83,303.9,78.4,306.4,73.1,306.5z"/>
	<path class="st0" d="M157.4,80.9c2.9-3.2,6.3-6.1,10.1-8.5C164.2,75.2,160.8,78,157.4,80.9z"/>
	<path class="st0" d="M147.9,110c-0.3-0.3-0.7-0.7-1-1c0-5.2,1.4-10,3.8-14.6C150.1,99.7,147.6,104.6,147.9,110z"/>
	<path class="st0" d="M163,209.3c-1.6,5-7.1,8.6-11.3,7.5C156.3,215.5,159.6,212.3,163,209.3z"/>
	<path class="st0" d="M53,289.5c0,0.3,0,0.7,0,1c-1.1,0.3-0.4,1.5-1,2.1c-3.7-1.1-5.4,1.6-7.2,4c-0.6-0.7-1.2-1.4-1.8-2.1
		c3-0.9,5.2-2.8,6.9-5.3C51.1,289.3,52,289.4,53,289.5z"/>
	<path class="st0" d="M191,83.2c0,0.3,0,0.5,0,0.8c-5.4,1.9-10.8,2.3-16-0.8C180.3,83.7,185.7,84.8,191,83.2z"/>
	<path class="st0" d="M94.9,136.2c-5.9,1-11.9,1.1-17.8-0.1C83.1,136.2,89,136.2,94.9,136.2z"/>
	<path class="st0" d="M147,153c-0.2-0.3-0.4-0.6-0.7-0.9c-0.7-3.7-3.1-6.2-6.3-8.1C145.6,145.2,147.6,147.7,147,153z"/>
	<path class="st0" d="M114.1,32.4c0-2.1,0-4.1,0.1-6.2c-0.3,6.2,5.6,5.7,8.8,8.1c0,0,0,0,0,0C119.8,34.9,117.2,32.7,114.1,32.4z"/>
	<path class="st0" d="M40.3,292.3c-0.4-0.3-0.8-0.6-1.2-0.9c0.3-3.8,2.2-7,3.5-10.5C43.1,285,39.8,288.3,40.3,292.3z"/>
	<path class="st0" d="M186,358.4c4.2,0.7,8.3,1.8,12,4c0,0,0.1-0.1,0.1-0.1C193.7,362.1,189.6,360.9,186,358.4L186,358.4z"/>
	<path class="st0" d="M162.1,91.1c-1.3,3.4-2.7,6.7-4,10.1C157,96.9,159.3,93.9,162.1,91.1z"/>
	<path class="st0" d="M172.4,222.9c-0.2,3.9-2,6.8-4.6,9.2C169.3,229.1,170.8,226,172.4,222.9z"/>
	<path class="st0" d="M228.4,112.8c-1.5-3-3-6-4.6-9C226.9,105.9,227.9,109.2,228.4,112.8z"/>
	<path class="st0" d="M133.6,133.3c-3.6,0.8-6.9-0.2-10-2.2C126.9,131.9,130.3,132.6,133.6,133.3z"/>
	<path class="st0" d="M248.2,187.3c2.7-1.3,5.5-2.7,8.2-4C254.3,185.9,251.6,187.2,248.2,187.3z"/>
	<path class="st0" d="M186,358.4c-3.7,0-6.5-2.1-9.6-3.7C179.8,355.3,183.2,356.1,186,358.4C186,358.4,186,358.4,186,358.4z"/>
	<path class="st0" d="M143.9,218.8c-1.5,2.6-1.8,5.7-4,7.9c-0.2,0-0.4,0-0.6,0C140.5,223.9,140.1,220.2,143.9,218.8z"/>
	<path class="st0" d="M112.9,268.6c-0.3,0-0.6,0-0.9,0c0.4-3.3-1.2-7.1,2-9.9C113.6,262.1,113.3,265.3,112.9,268.6z"/>
	<path class="st0" d="M139.3,226.8c0.2,0,0.4,0,0.6,0c-0.8,3.2-1.1,6.7-3.9,9C136.4,232.5,137.8,229.6,139.3,226.8z"/>
	<path class="st0" d="M222.1,119.1c0.2,0,0.4,0.1,0.7,0c1.1,2.6,2.1,5.2,3.2,7.8C222.1,125.5,223.2,121.7,222.1,119.1z"/>
	<path class="st0" d="M127.6,308.8c1.2,2.4,2.4,4.8,3.6,7.1C128.5,314.4,127.9,311.8,127.6,308.8z"/>
	<path class="st0" d="M63.3,238.2c-1.2,2.2-2.3,4.3-3.5,6.5C59.5,241.8,61,239.8,63.3,238.2z"/>
	<path class="st0" d="M156,110.1c0,3.3,0,6.7,0,10C154.3,116.8,154.3,113.4,156,110.1z"/>
	<path class="st0" d="M53.3,298.6c-0.4-2-0.8-4.1-1.2-6.1c2.8,0.5,0.9,4.8,4,5.1C55.3,298.5,54.3,298.7,53.3,298.6z"/>
	<path class="st0" d="M117,197.8c-3.6,1-5.5,4.2-7.8,6.6c-20,21.1-34.7,45.6-46,72.2c-1.1,2.7,0,3.2,1.9,4c-1.2,1.8-2.8,0.7-3.9,0.1
		c-1.4-0.8-0.2-2,0.2-3c12.1-29.8,28.8-56.8,51.9-79.5C114.3,197.3,115.5,194.2,117,197.8z"/>
	<path class="st0" d="M78,285.7c8.8-1.4,16.3-6,23.9-10.2c2.2-1.2,0.8-3.9,1.2-5.9c0.3-1.9,0-3.9,0-5.9c0.6-0.5,1.2-0.6,1.8,0
		c-0.2,3.4-0.5,6.9-0.6,10.3c0,1.5-0.5,2.3-1.9,3.1c-7.3,4.2-15,7.5-22.8,10.5c-0.5,0.2-1.2-0.3-1.8-0.4
		C77.5,286.6,77.5,286.1,78,285.7z"/>
	<path class="st0" d="M113,225.3c0.9-6,4-11.1,6-16.7c0.3,0.4,0.9,0.8,0.8,1.1C117.8,215,116.4,220.6,113,225.3z"/>
	<path class="st0" d="M106,254.6c-1.2-3.3-1.1-6.4,2-8.8C107.3,248.8,106.7,251.7,106,254.6z"/>
	<path class="st0" d="M78,285.7c0,0.5-0.1,0.9-0.1,1.4c-1.9-2.2-6-1.7-6.6-5.4C73.5,283.1,75.8,284.4,78,285.7z"/>
	<path class="st0" d="M104.9,263.6c-0.6,0-1.2,0-1.8,0c1.8-2.3-0.3-6,2.9-7.8C105.6,258.4,105.3,261,104.9,263.6z"/>
</g>
</svg>
