<?xml version="1.0" encoding="utf-8"?>
<!-- Generator: Adobe Illustrator 26.0.3, SVG Export Plug-In . SVG Version: 6.00 Build 0)  -->
<svg version="1.1" id="Laag_1" xmlns="http://www.w3.org/2000/svg" xmlns:xlink="http://www.w3.org/1999/xlink" x="0px" y="0px"
	 viewBox="0 0 500 500" style="enable-background:new 0 0 500 500;" xml:space="preserve">
<style type="text/css">
	.st0{fill:#C7102E;}
	.st1{fill:#FEFEFE;}
	.st2{fill:#012169;}
</style>
<g>
	<path class="st0" d="M-249.8,301c0-33.3,0-66.7,0-100c1.2-1.3,2.8-1.7,4.5-1.7c2.4,0,4.7,0,7.1,0c142.5,0,285,0,427.5,0
		c9,0,9,0,9-8.8c0-60.5,0-121,0-181.6c0-2.7-0.7-5.6,1.7-7.9c33.3,0,66.6,0,100,0c2.2,1.9,1.7,4.6,1.7,7c0,32.5,0,65,0,97.4
		c0,28.5,0,56.9,0,85.4c0,1.4,0,2.8,0,4.2c-0.1,3,1.5,4.3,4.4,4.2c1.8,0,3.6,0,5.4,0c143.1,0,286.1,0,429.2,0c3.1,0,6.5-1,9.1,1.7
		c0,33.3,0,66.7,0,100c-1.2,1.3-2.8,1.7-4.5,1.7c-2.4,0-4.7,0-7.1,0c-142.5,0-285,0-427.5,0c-9,0-9,0-9,8.8c0,60.5,0,121,0,181.6
		c0,2.7,0.7,5.6-1.7,7.9c-33.3,0-66.6,0-100,0c-2.2-1.9-1.7-4.6-1.7-7c0-32.5,0-65,0-97.4c0-28.5,0-56.9,0-85.4c0-1.4,0-2.8,0-4.2
		c0.1-3-1.5-4.3-4.4-4.2c-1.8,0-3.6,0-5.4,0c-143.1,0-286.1,0-429.2,0C-243.8,302.7-247.1,303.7-249.8,301z"/>
	<path class="st1" d="M200,1c0,65.1,0,130.3,0.1,195.4c0,3.8-1,4.7-4.7,4.7C47,201-101.4,201-249.8,201c0-11.1,0-22.2,0-33.3
		c2-2.1,4.6-1.6,7.1-1.6c24.7,0,49.4,0,74.1,0c43,0,86.1,0,129.1,0c2,0,4-0.2,5.5,0.3c-1.4-0.3-3-1.2-4.6-2
		C-106.8,130.2-175.1,96-243.4,61.9c-2.5-1.2-5.1-2.3-6.4-5c0-6.1,0-12.2,0-18.3c2.4-1.6,4.3,0.1,6.2,1
		c15.3,7.6,30.5,15.3,45.8,22.9C-130.9,95.9-64,129.3,2.9,162.8c4.6,2.3,9.2,3.4,14.3,3.3c18.6-0.2,37.2-0.1,55.8-0.1
		c1.8,0,3.6-0.1,5,0.3c-1.2-0.2-2.7-1.1-4.1-1.8C-31.8,111.7-137.4,58.9-243,6c-2.3-1.1-5.6-1.4-5.9-5c37.2,0,74.4,0,111.6,0
		c5.4,1.1,10.1,3.7,14.9,6.1c94.2,47.1,188.5,94.3,282.7,141.4c1.4,0.7,2.6,1.5,4.2,1.9c1.1-1.3,0.6-2.7,0.6-4c0-46,0-91.9,0-137.9
		c0-2.6-0.6-5.3,1.6-7.5C177.8,1,188.9,1,200,1z"/>
	<path class="st1" d="M300,501c0-65.1,0-130.3-0.1-195.4c0-3.8,1-4.7,4.7-4.7C453,301,601.4,301,749.8,301c0,11.1,0,22.2,0,33.3
		c-2,2.1-4.6,1.6-7.1,1.6c-24.7,0-49.4,0-74.1,0c-43,0-86.1,0-129.1,0c-2,0-4,0.2-5.5-0.3c1.4,0.3,3,1.2,4.6,2
		c68.3,34.2,136.6,68.3,204.8,102.5c2.5,1.2,5.1,2.3,6.4,5c0,6.1,0,12.2,0,18.3c-2.6,1.1-4.6-0.6-6.6-1.6
		c-44.8-22.4-89.6-44.8-134.5-67.2c-37.4-18.7-74.7-37.4-112.1-56.1c-3.7-1.9-7.4-2.7-11.6-2.7c-19.3,0.1-38.6,0-57.9,0
		c-1.8,0-3.6,0.1-5-0.2c1.2,0.2,2.5,1.1,3.9,1.8C531.7,390.2,637.4,443.1,743,496c2.3,1.1,5.6,1.4,5.9,5c-37.2,0-74.4,0-111.6,0
		c-5.4-1.1-10.1-3.7-14.9-6.1c-94.2-47.1-188.5-94.3-282.7-141.4c-1.3-0.7-2.6-1.5-4.2-1.9c-1.1,1.3-0.6,2.7-0.6,4
		c0,46,0,91.9,0,137.9c0,2.6,0.6,5.3-1.6,7.5C322.2,501,311.1,501,300,501z"/>
	<path class="st1" d="M749.8,201c-148.2,0-296.5,0-444.7,0.1c-4.1,0-5.2-0.9-5.2-5.1C300,131,300,66,300,1c11.1,0,22.2,0,33.3,0
		c2.1,2,1.6,4.6,1.6,7.1c0,46,0,91.9,0,137.9c0,1.4-0.3,2.8,0.2,4.2c1.5,0.4,2.6-0.7,3.8-1.3c95-47.5,190-95,284.9-142.5
		c4.3-2.2,8.7-4.2,13.5-5.3c12.5,0,25,0,37.5,0c0.4,1.8-1.1,2.4-2.2,3.1c-1.1,0.8-2.4,1.3-3.7,1.9
		C563.1,58.9,457.4,111.9,351.6,164.8c-1.4,0.7-2.7,1.5-4,1.7c1.6-0.4,3.5-0.3,5.3-0.3c19.2,0,38.3-0.1,57.5,0c4,0,7.6-0.9,11.2-2.7
		C526,111.3,630.4,59,734.8,6.8c4.6-2.3,9.1-4.7,14.1-5.8c1.7,0.7,0.8,2.3,0.8,3.3c0.1,17.5,0.1,35,0.1,52.5c-1,2.1-2.9,3.3-4.9,4.3
		c-69.3,34.6-138.5,69.3-207.8,103.9c-1.1,0.6-2.2,1.1-3.2,1.3c1.6-0.5,3.4-0.4,5.3-0.4c67.6,0,135.2,0,202.8,0
		c2.7,0,5.6-0.6,7.9,1.6C749.8,178.8,749.8,189.9,749.8,201z"/>
	<path class="st1" d="M-249.8,301c148.2,0,296.5,0,444.7-0.1c4.1,0,5.2,0.9,5.2,5.1c-0.2,65-0.1,130-0.1,195c-11.1,0-22.2,0-33.3,0
		c-2.1-2-1.6-4.6-1.6-7.1c0-46,0-91.9,0-137.9c0-1.4,0.3-2.8-0.2-4.2c-1.5-0.4-2.6,0.7-3.8,1.3c-95,47.5-190,95-285,142.5
		c-4.3,2.2-8.7,4.2-13.5,5.3c-12.5,0-25,0-37.5,0c0-2.4,2.1-2.7,3.6-3.4c10-5.1,20.1-10.1,30.2-15.1
		c96.2-48.2,192.5-96.3,288.7-144.4c2.1-1,4.1-2.4,6.3-2.6c-1.8,0.4-3.9,0.5-5.9,0.5c-19.4,0-38.9,0-58.3,0c-4,0-7.6,0.8-11.2,2.6
		c-106,53.1-212.1,106.1-318.1,159.2c-3,1.5-6.2,2.2-9.3,3.3c-1.7-0.7-0.8-2.3-0.8-3.3c-0.1-17.5-0.1-35-0.1-52.5
		c1-2.1,2.9-3.3,4.9-4.3c69.3-34.6,138.5-69.3,207.8-103.9c1.1-0.6,2.2-1.1,3.2-1.3c-1.6,0.5-3.4,0.4-5.3,0.4
		c-67.6,0-135.2,0-202.8,0c-2.7,0-5.6,0.6-7.9-1.6C-249.8,323.2-249.8,312.1-249.8,301z"/>
	<path class="st2" d="M166.7,1c0,50.5,0,101.1,0,151.6c-1.6,0.6-2.5-0.5-3.5-1C63.9,102-35.3,52.4-134.5,2.7c-1-0.5-1.9-1.1-2.8-1.7
		C-36,1,65.4,1,166.7,1z"/>
	<path class="st2" d="M637.3,1c-0.7,1.1-2,1.3-3.1,1.9c-99,49.6-198.1,99.1-297.1,148.7c-1.1,0.5-2.2,1-3.8,1.7
		c0-51,0-101.7,0-152.3C434.6,1,536,1,637.3,1z"/>
	<path class="st2" d="M-137.3,501c2.3-1.3,4.5-2.6,6.9-3.7c97.7-48.9,195.5-97.8,293.2-146.7c1.1-0.5,2.2-1,3.9-1.8
		c0,51.1,0,101.7,0,152.3C65.4,501-36,501-137.3,501z"/>
	<path class="st2" d="M333.3,501c0-50.6,0-101.2,0-152.4c3,1.5,5.4,2.7,7.9,3.9c97.6,48.8,195.1,97.6,292.7,146.4
		c1.2,0.6,2.3,1.4,3.5,2.1C536,501,434.6,501,333.3,501z"/>
	<path class="st0" d="M-248.9,501c0.8-1.3,2.3-1.5,3.5-2.1c108.4-54.3,216.8-108.5,325.2-162.7c2.5-1.3,5.1-1.9,7.9-1.9
		c22.9,0.1,45.8,0,69.8,0c-2.1,1.2-3.3,1.9-4.6,2.5C44.8,391-63.4,445.1-171.6,499.2c-1.1,0.6-2.2,1.2-3.2,1.8
		C-199.5,501-224.2,501-248.9,501z"/>
	<path class="st0" d="M748.9,1c-0.9,1.4-2.5,1.7-3.8,2.3C637,57.4,528.9,111.5,420.8,165.6c-2.8,1.4-5.5,2.1-8.7,2.1
		c-21.4-0.1-42.7-0.1-64.1-0.1c-1.3,0-2.7,0-5.3,0c2.3-1.3,3.5-2,4.8-2.6c107.7-53.9,215.4-107.7,323-161.6c1.5-0.7,2.9-1.6,4.3-2.4
		C699.5,1,724.2,1,748.9,1z"/>
	<path class="st2" d="M-249.8,56.8c72.1,36.1,144.3,72.2,216.4,108.3c1.2,0.6,2.4,1.2,3.4,2.5c-73.3,0-146.6,0-219.9,0
		C-249.8,130.7-249.8,93.8-249.8,56.8z"/>
	<path class="st2" d="M749.8,167.7c-73.3,0-146.5,0-221,0c2.2-1.2,3.5-1.9,4.7-2.6c70.8-35.5,141.7-70.9,212.5-106.4
		c1.2-0.6,2.5-1.3,3.7-1.9C749.8,93.8,749.8,130.7,749.8,167.7z"/>
	<path class="st2" d="M-249.8,334.3c73.3,0,146.5,0,219.8,0c0.1,0.2,0.2,0.5,0.3,0.7c-73.3,36.7-146.7,73.4-220,110.1
		C-249.8,408.2-249.8,371.3-249.8,334.3z"/>
	<path class="st2" d="M749.8,445.2c-45-22.5-89.9-45-134.9-67.5c-28.3-14.2-56.7-28.4-85-43.3c73.3,0,146.6,0,219.8,0
		C749.8,371.3,749.8,408.2,749.8,445.2z"/>
	<path class="st0" d="M748.9,501c-0.9-1.4-2.5-1.7-3.8-2.3c-107.8-54-215.6-107.9-323.4-161.8c-1.2-0.6-2.4-1.2-3.5-2.5
		c1.3,0,2.6,0,3.9,0c21.5,0,43,0,64.5-0.1c3.2,0,5.9,0.7,8.7,2.1C578.9,378.3,662.4,420,746,461.8c1.2,0.6,2.5,1.1,3.8,1.7
		c0,11.7,0,23.3-0.1,35C749.7,499.3,750.7,500.7,748.9,501z"/>
	<path class="st0" d="M-248.9,1c6.5,4.2,13.7,7.2,20.6,10.7C-126.2,62.9-23.9,114,78.3,165.1c1.2,0.6,2.4,1.2,3.6,2.6
		c-1.3,0-2.6,0-3.9,0c-21.4,0-42.8,0-64.1,0c-3.3,0-6.2-0.6-9.1-2.1C-78.7,123.8-162.2,82-245.6,40.3c-1.3-0.7-2.8-1.2-4.2-1.8
		c0-11.7,0-23.4,0.1-35C-249.7,2.7-250.7,1.3-248.9,1z"/>
</g>
</svg>
