<?xml version="1.0" encoding="utf-8"?>
<!-- Generator: Adobe Illustrator 26.0.3, SVG Export Plug-In . SVG Version: 6.00 Build 0)  -->
<svg version="1.1" id="Layer_1" xmlns="http://www.w3.org/2000/svg" xmlns:xlink="http://www.w3.org/1999/xlink" x="0px" y="0px"
	 viewBox="0 0 601 94" style="enable-background:new 0 0 601 94;" xml:space="preserve">
<style type="text/css">
	.st0{fill:#2FD371;}
	.st1{fill:#333333;}
</style>
<path class="st0" d="M50.2,80.5c-1.2,2.7-2.7,5-4.8,7.1s-4.4,3.6-7.1,4.8c-2.7,1.2-5.6,1.7-8.6,1.7h-6.4c-3.1,0-6-0.6-8.7-1.7
	s-5.1-2.7-7.1-4.8s-3.6-4.4-4.8-7.1C1.6,77.8,1,74.9,1,71.8V23.2c0-3.1,0.6-6,1.7-8.6c1.2-2.7,2.7-5,4.8-7.1s4.4-3.6,7.1-4.8
	C17.3,1.6,20.2,1,23.3,1h6.4c3.1,0,6,0.6,8.6,1.7c2.7,1.2,5,2.7,7.1,4.8s3.6,4.4,4.8,7.1c1.2,2.7,1.7,5.6,1.7,8.6v3.7l-8.1,1.3v-4.9
	c0-2-0.4-3.9-1.1-5.6c-0.8-1.7-1.8-3.3-3.1-4.6c-1.3-1.3-2.8-2.3-4.6-3.1c-1.7-0.8-3.6-1.1-5.6-1.1h-5.7c-2,0-3.9,0.4-5.6,1.1
	c-1.7,0.8-3.3,1.8-4.6,3.1c-1.3,1.3-2.4,2.8-3.1,4.6c-0.8,1.7-1.1,3.6-1.1,5.6v48.6c0,2,0.4,3.9,1.1,5.6c0.8,1.7,1.8,3.3,3.1,4.6
	s2.9,2.4,4.6,3.1c1.7,0.8,3.6,1.1,5.6,1.1h5.7c2,0,3.9-0.4,5.6-1.1c1.7-0.8,3.3-1.8,4.6-3.1c1.3-1.3,2.3-2.9,3.1-4.6
	c0.8-1.7,1.1-3.6,1.1-5.6v-4.9l8.1,1.3v3.6C51.9,74.9,51.3,77.8,50.2,80.5z"/>
<path class="st0" d="M112.6,92.8L88,54.1H76.8v38.6h-8.1V2.3h28.7c3.1,0,6,0.6,8.6,1.7c2.7,1.2,5,2.7,7.1,4.8c2,2,3.6,4.4,4.8,7.1
	c1.2,2.7,1.7,5.6,1.7,8.7v7.3c0,3.1-0.6,6-1.7,8.7c-1.2,2.7-2.7,5.1-4.8,7.1c-2,2-4.4,3.6-7.1,4.8c-2.7,1.2-5.6,1.7-8.6,1.7
	L122,92.8H112.6z M111.5,24.5c0-2-0.4-3.9-1.1-5.6c-0.8-1.7-1.8-3.3-3.1-4.6c-1.3-1.3-2.8-2.4-4.6-3.1C100.9,10.4,99,10,97,10H76.8
	v36.4H97c2,0,3.9-0.4,5.6-1.1c1.7-0.8,3.3-1.8,4.6-3.1c1.3-1.3,2.3-2.9,3.1-4.6c0.8-1.7,1.1-3.6,1.1-5.6V24.5z"/>
<path class="st0" d="M185.4,80.5c-1.2,2.7-2.7,5-4.8,7.1s-4.4,3.6-7.1,4.8c-2.7,1.2-5.6,1.7-8.6,1.7h-6.4c-3.1,0-6-0.6-8.7-1.7
	s-5.1-2.7-7.1-4.8s-3.6-4.4-4.8-7.1c-1.2-2.7-1.7-5.6-1.7-8.6V23.2c0-3.1,0.6-6,1.7-8.6c1.2-2.7,2.7-5,4.8-7.1s4.4-3.6,7.1-4.8
	c2.7-1.2,5.6-1.7,8.7-1.7h6.4c3.1,0,6,0.6,8.6,1.7c2.7,1.2,5,2.7,7.1,4.8s3.6,4.4,4.8,7.1c1.2,2.7,1.7,5.6,1.7,8.6v48.6
	C187.1,74.9,186.5,77.8,185.4,80.5z M178.9,23.2c0-2-0.4-3.9-1.1-5.6c-0.8-1.7-1.8-3.3-3.1-4.6c-1.3-1.3-2.8-2.3-4.6-3.1
	c-1.7-0.8-3.6-1.1-5.6-1.1h-5.7c-2,0-3.9,0.4-5.6,1.1c-1.7,0.8-3.3,1.8-4.6,3.1c-1.3,1.3-2.4,2.8-3.1,4.6c-0.8,1.7-1.1,3.6-1.1,5.6
	v48.6c0,2,0.4,3.9,1.1,5.6c0.8,1.7,1.8,3.3,3.1,4.6c1.3,1.3,2.9,2.4,4.6,3.1c1.7,0.8,3.6,1.1,5.6,1.1h5.7c2,0,3.9-0.4,5.6-1.1
	c1.7-0.8,3.3-1.8,4.6-3.1c1.3-1.3,2.3-2.9,3.1-4.6c0.8-1.7,1.1-3.6,1.1-5.6V23.2z"/>
<path class="st0" d="M256.1,71.8c0,3.1-0.6,6-1.9,8.6c-1.2,2.7-2.9,5-5,7.1c-2.1,2-4.5,3.6-7.3,4.8c-2.8,1.2-5.7,1.7-8.7,1.7h-6.5
	c-3.1,0-6-0.6-8.7-1.7c-2.8-1.2-5.2-2.7-7.3-4.8s-3.7-4.4-5-7.1c-1.2-2.7-1.9-5.6-1.9-8.6v-3.6l8.1-1.3v4.9c0,2,0.4,3.9,1.2,5.6
	c0.8,1.7,1.9,3.3,3.3,4.6c1.4,1.3,3,2.4,4.8,3.1c1.8,0.8,3.8,1.1,5.8,1.1h5.7c2,0,3.9-0.4,5.7-1.1c1.8-0.8,3.4-1.8,4.8-3.1
	c1.4-1.3,2.5-2.9,3.3-4.6c0.8-1.7,1.2-3.6,1.2-5.6v-2.7c0-3.1-0.6-5.7-1.8-7.8c-1.2-2.1-2.8-3.8-4.9-5.3s-4.3-2.7-6.8-3.7
	c-2.5-1-5.2-2-7.9-3c-2.7-1-5.3-2.1-7.9-3.3c-2.5-1.2-4.8-2.7-6.8-4.6s-3.6-4.1-4.9-6.7c-1.2-2.7-1.8-5.9-1.8-9.8v-1.7
	c0-3.1,0.6-6,1.7-8.6c1.2-2.7,2.7-5,4.8-7.1s4.4-3.6,7.1-4.8c2.7-1.2,5.6-1.7,8.7-1.7h5.8c3.1,0,6,0.6,8.6,1.7
	c2.7,1.2,5,2.7,7.1,4.8s3.6,4.4,4.8,7.1c1.2,2.7,1.7,5.6,1.7,8.6v2.3l-8.1,1.3v-3.7c0-2-0.4-3.9-1.1-5.6c-0.8-1.7-1.8-3.3-3.1-4.6
	c-1.3-1.3-2.8-2.3-4.6-3.1c-1.7-0.8-3.6-1.1-5.6-1.1h-5c-2,0-3.9,0.4-5.6,1.1c-1.7,0.8-3.3,1.8-4.6,3.1c-1.3,1.3-2.4,2.8-3.1,4.6
	c-0.8,1.7-1.1,3.6-1.1,5.6v1.7c0,2.9,0.6,5.3,1.8,7.3c1.2,2,2.8,3.7,4.9,5.1c2,1.4,4.3,2.6,6.8,3.7c2.5,1,5.2,2.1,7.9,3.2
	c2.7,1.1,5.3,2.3,7.9,3.5c2.5,1.3,4.8,2.9,6.8,4.7c2,1.9,3.6,4.2,4.9,6.8c1.2,2.7,1.8,6,1.8,9.8V71.8z"/>
<path class="st0" d="M323.2,71.8c0,3.1-0.6,6-1.9,8.6c-1.2,2.7-2.9,5-5,7.1c-2.1,2-4.5,3.6-7.3,4.8c-2.8,1.2-5.7,1.7-8.7,1.7h-6.5
	c-3.1,0-6-0.6-8.7-1.7c-2.8-1.2-5.2-2.7-7.3-4.8s-3.7-4.4-5-7.1c-1.2-2.7-1.9-5.6-1.9-8.6v-3.6l8.1-1.3v4.9c0,2,0.4,3.9,1.2,5.6
	c0.8,1.7,1.9,3.3,3.3,4.6s3,2.4,4.8,3.1c1.8,0.8,3.8,1.1,5.8,1.1h5.7c2,0,3.9-0.4,5.7-1.1c1.8-0.8,3.4-1.8,4.8-3.1
	c1.4-1.3,2.5-2.9,3.3-4.6c0.8-1.7,1.2-3.6,1.2-5.6v-2.7c0-3.1-0.6-5.7-1.8-7.8c-1.2-2.1-2.8-3.8-4.9-5.3s-4.3-2.7-6.8-3.7
	c-2.5-1-5.2-2-7.9-3c-2.7-1-5.3-2.1-7.9-3.3c-2.5-1.2-4.8-2.7-6.8-4.6s-3.6-4.1-4.9-6.7c-1.2-2.7-1.8-5.9-1.8-9.8v-1.7
	c0-3.1,0.6-6,1.7-8.6c1.2-2.7,2.7-5,4.8-7.1s4.4-3.6,7.1-4.8c2.7-1.2,5.6-1.7,8.7-1.7h5.8c3.1,0,6,0.6,8.6,1.7
	c2.7,1.2,5,2.7,7.1,4.8s3.6,4.4,4.8,7.1c1.2,2.7,1.7,5.6,1.7,8.6v2.3l-8.1,1.3v-3.7c0-2-0.4-3.9-1.1-5.6c-0.8-1.7-1.8-3.3-3.1-4.6
	c-1.3-1.3-2.8-2.3-4.6-3.1c-1.7-0.8-3.6-1.1-5.6-1.1h-5c-2,0-3.9,0.4-5.6,1.1c-1.7,0.8-3.3,1.8-4.6,3.1c-1.3,1.3-2.4,2.8-3.1,4.6
	c-0.8,1.7-1.1,3.6-1.1,5.6v1.7c0,2.9,0.6,5.3,1.8,7.3c1.2,2,2.8,3.7,4.9,5.1c2,1.4,4.3,2.6,6.8,3.7c2.5,1,5.2,2.1,7.9,3.2
	c2.7,1.1,5.3,2.3,7.9,3.5c2.5,1.3,4.8,2.9,6.8,4.7c2,1.9,3.6,4.2,4.9,6.8c1.2,2.7,1.8,6,1.8,9.8V71.8z"/>
<path class="st1" d="M396.4,92.8v-62l-0.6,3.8l-21,58.2h-4.3l-21.2-58.2l-0.5-3.8v62h-8.1V2.3h4.2l27.5,74.2l0.3,3.3l0.3-3.3
	l27.4-74.2h4.3v90.5H396.4z"/>
<path class="st1" d="M459.2,71.7h-28.7l-5.9,21.1h-8.5l26.5-90.5h4.3l26.6,90.5h-8.4L459.2,71.7z M432.7,63.9H457l-11.9-41.7
	l-0.3-3.3l-0.3,3.3L432.7,63.9z"/>
<path class="st1" d="M527.7,92.8l-24.6-38.6H492v38.6h-8.1V2.3h28.7c3.1,0,6,0.6,8.6,1.7c2.7,1.2,5,2.7,7.1,4.8c2,2,3.6,4.4,4.8,7.1
	c1.2,2.7,1.7,5.6,1.7,8.7v7.3c0,3.1-0.6,6-1.7,8.7c-1.2,2.7-2.7,5.1-4.8,7.1c-2,2-4.4,3.6-7.1,4.8c-2.7,1.2-5.6,1.7-8.6,1.7
	l24.6,38.6H527.7z M526.6,24.5c0-2-0.4-3.9-1.1-5.6c-0.8-1.7-1.8-3.3-3.1-4.6c-1.3-1.3-2.8-2.4-4.6-3.1c-1.7-0.8-3.6-1.1-5.6-1.1
	H492v36.4h20.2c2,0,3.9-0.4,5.6-1.1c1.7-0.8,3.3-1.8,4.6-3.1c1.3-1.3,2.3-2.9,3.1-4.6c0.8-1.7,1.1-3.6,1.1-5.6V24.5z"/>
<path class="st1" d="M592.2,92.8l-18.6-37.6L555,92.8h-8.8l23-46.5l-21.7-44h8.8l17.4,35l17.3-35h8.8l-21.7,44l23,46.5H592.2z"/>
</svg>
