<svg xmlns="http://www.w3.org/2000/svg" xmlns:xlink="http://www.w3.org/1999/xlink" width="256.009" height="200" viewBox="0 0 256.009 200">
  <defs>
    <clipPath id="clip-path">
      <path id="Path_265" data-name="Path 265" d="M1.46,35.561C-7.412,67.4,26.5,91.784,40.113,137.172,51.665,175.68,64.792,199.96,94.795,200h.135a74.872,74.872,0,0,0,17.658-2.358c43.046-10.542,122.989-42.167,139.68-86.044a53.468,53.468,0,0,0,3.741-19.066v-.044c-.019-32.254-34.189-51.741-56.45-61.758C173.2,18.869,131.021,12.614,116.1,8.767,93.272,2.879,74.157,0,58.42,0,26.018,0,7.964,12.22,1.46,35.561" transform="translate(0 0)" fill="#ddd"/>
    </clipPath>
  </defs>
  <g id="Group_47" data-name="Group 47" transform="translate(0)">
    <g id="Group_46" data-name="Group 46" transform="translate(0 0)" clip-path="url(#clip-path)">
      <rect id="Rectangle_32" data-name="Rectangle 32" width="263.421" height="200.001" transform="translate(-7.412 -0.001)" fill="#ddd"/>
    </g>
  </g>
</svg>
