<?xml version="1.0" encoding="utf-8"?>
<!-- Generator: Adobe Illustrator 26.0.3, SVG Export Plug-In . SVG Version: 6.00 Build 0)  -->
<svg version="1.1" id="Layer_1" xmlns="http://www.w3.org/2000/svg" xmlns:xlink="http://www.w3.org/1999/xlink" x="0px" y="0px"
	 viewBox="0 0 600.97 94.03" style="enable-background:new 0 0 600.97 94.03;" xml:space="preserve">
<style type="text/css">
	.st0{fill:#2FD371;}
	.st1{fill:#333333;}
</style>
<path class="st0" d="M50.17,80.46c-1.16,2.69-2.75,5.05-4.76,7.07s-4.38,3.61-7.07,4.76c-2.69,1.16-5.58,1.74-8.65,1.74h-6.44
	c-3.07,0-5.96-0.58-8.68-1.74s-5.08-2.75-7.1-4.76s-3.61-4.38-4.76-7.07c-1.16-2.69-1.74-5.57-1.74-8.65v-48.6
	c0-3.07,0.58-5.95,1.74-8.65c1.16-2.69,2.75-5.05,4.76-7.07s4.39-3.61,7.1-4.76C17.29,1.58,20.18,1,23.25,1h6.44
	c3.07,0,5.95,0.58,8.65,1.74c2.69,1.16,5.05,2.75,7.07,4.76s3.61,4.38,4.76,7.07c1.16,2.69,1.74,5.58,1.74,8.65v3.66l-8.14,1.26
	v-4.92c0-2.02-0.38-3.9-1.14-5.65c-0.76-1.75-1.79-3.27-3.09-4.58c-1.3-1.3-2.83-2.34-4.58-3.09c-1.75-0.76-3.63-1.14-5.65-1.14
	h-5.68c-2.02,0-3.9,0.38-5.65,1.14c-1.75,0.76-3.28,1.79-4.61,3.09c-1.33,1.3-2.37,2.83-3.12,4.58c-0.76,1.75-1.14,3.63-1.14,5.65
	v48.6c0,2.02,0.38,3.9,1.14,5.65c0.76,1.75,1.8,3.28,3.12,4.61s2.86,2.37,4.61,3.12c1.75,0.76,3.63,1.14,5.65,1.14h5.68
	c2.02,0,3.9-0.38,5.65-1.14c1.75-0.76,3.27-1.8,4.58-3.12c1.3-1.33,2.34-2.86,3.09-4.61c0.76-1.75,1.14-3.63,1.14-5.65v-4.92
	l8.14,1.33v3.6C51.91,74.88,51.33,77.77,50.17,80.46z"/>
<path class="st0" d="M112.56,92.76L88,54.14H76.83v38.62h-8.14V2.26h28.72c3.07,0,5.95,0.58,8.65,1.74
	c2.69,1.16,5.05,2.75,7.07,4.76c2.02,2.02,3.61,4.39,4.76,7.1c1.16,2.71,1.74,5.61,1.74,8.68v7.32c0,3.07-0.58,5.96-1.74,8.68
	c-1.16,2.71-2.75,5.08-4.76,7.1c-2.02,2.02-4.38,3.61-7.07,4.76c-2.69,1.16-5.58,1.74-8.65,1.74l24.55,38.62H112.56z M111.48,24.54
	c0-2.02-0.38-3.9-1.14-5.65c-0.76-1.75-1.79-3.28-3.09-4.61c-1.3-1.33-2.83-2.37-4.58-3.12c-1.75-0.76-3.63-1.14-5.65-1.14h-20.2
	v36.35h20.2c2.02,0,3.9-0.38,5.65-1.14c1.75-0.76,3.27-1.8,4.58-3.12c1.3-1.33,2.34-2.86,3.09-4.61c0.76-1.75,1.14-3.63,1.14-5.65
	V24.54z"/>
<path class="st0" d="M185.35,80.46c-1.16,2.69-2.75,5.05-4.76,7.07s-4.38,3.61-7.07,4.76c-2.69,1.16-5.58,1.74-8.65,1.74h-6.44
	c-3.07,0-5.96-0.58-8.68-1.74s-5.08-2.75-7.1-4.76s-3.61-4.38-4.76-7.07c-1.16-2.69-1.74-5.57-1.74-8.65v-48.6
	c0-3.07,0.58-5.95,1.74-8.65c1.16-2.69,2.75-5.05,4.76-7.07s4.39-3.61,7.1-4.76c2.71-1.16,5.61-1.74,8.68-1.74h6.44
	c3.07,0,5.95,0.58,8.65,1.74c2.69,1.16,5.05,2.75,7.07,4.76s3.61,4.38,4.76,7.07c1.16,2.69,1.74,5.58,1.74,8.65v48.6
	C187.09,74.88,186.51,77.77,185.35,80.46z M178.95,23.22c0-2.02-0.38-3.9-1.14-5.65c-0.76-1.75-1.79-3.27-3.09-4.58
	c-1.3-1.3-2.83-2.34-4.58-3.09c-1.75-0.76-3.63-1.14-5.65-1.14h-5.68c-2.02,0-3.9,0.38-5.65,1.14c-1.75,0.76-3.28,1.79-4.61,3.09
	c-1.33,1.3-2.37,2.83-3.12,4.58c-0.76,1.75-1.14,3.63-1.14,5.65v48.6c0,2.02,0.38,3.9,1.14,5.65c0.76,1.75,1.8,3.28,3.12,4.61
	c1.33,1.33,2.86,2.37,4.61,3.12c1.75,0.76,3.63,1.14,5.65,1.14h5.68c2.02,0,3.9-0.38,5.65-1.14c1.75-0.76,3.27-1.8,4.58-3.12
	c1.3-1.33,2.34-2.86,3.09-4.61c0.76-1.75,1.14-3.63,1.14-5.65V23.22z"/>
<path class="st0" d="M256.13,71.81c0,3.07-0.62,5.95-1.86,8.65c-1.24,2.69-2.9,5.05-4.99,7.07c-2.08,2.02-4.5,3.61-7.26,4.76
	c-2.76,1.16-5.67,1.74-8.74,1.74h-6.5c-3.07,0-5.99-0.58-8.74-1.74c-2.76-1.16-5.18-2.75-7.26-4.76s-3.75-4.38-4.99-7.07
	c-1.24-2.69-1.86-5.57-1.86-8.65v-3.6l8.14-1.33v4.92c0,2.02,0.41,3.9,1.23,5.65c0.82,1.75,1.92,3.28,3.31,4.61
	c1.39,1.33,3,2.37,4.83,3.12c1.83,0.76,3.76,1.14,5.77,1.14h5.68c2.02,0,3.93-0.38,5.74-1.14c1.81-0.76,3.41-1.8,4.8-3.12
	c1.39-1.33,2.49-2.86,3.31-4.61c0.82-1.75,1.23-3.63,1.23-5.65V69.1c0-3.11-0.61-5.7-1.83-7.76c-1.22-2.06-2.84-3.82-4.86-5.27
	s-4.3-2.68-6.85-3.69c-2.55-1.01-5.17-2.02-7.86-3.03c-2.69-1.01-5.31-2.12-7.86-3.34c-2.55-1.22-4.83-2.75-6.85-4.58
	s-3.64-4.07-4.86-6.72c-1.22-2.65-1.83-5.91-1.83-9.78v-1.7c0-3.07,0.58-5.95,1.74-8.65c1.16-2.69,2.75-5.05,4.76-7.07
	s4.39-3.61,7.1-4.76c2.71-1.16,5.61-1.74,8.68-1.74h5.81c3.07,0,5.95,0.58,8.65,1.74c2.69,1.16,5.05,2.75,7.07,4.76
	s3.61,4.38,4.76,7.07c1.16,2.69,1.74,5.58,1.74,8.65v2.34l-8.14,1.33v-3.66c0-2.02-0.38-3.9-1.14-5.65
	c-0.76-1.75-1.79-3.27-3.09-4.58c-1.3-1.3-2.83-2.34-4.58-3.09c-1.75-0.76-3.63-1.14-5.65-1.14h-5.05c-2.02,0-3.9,0.38-5.65,1.14
	c-1.75,0.76-3.28,1.79-4.61,3.09c-1.33,1.3-2.37,2.83-3.12,4.58c-0.76,1.75-1.14,3.63-1.14,5.65v1.7c0,2.9,0.61,5.34,1.83,7.32
	c1.22,1.98,2.84,3.67,4.86,5.08c2.02,1.41,4.3,2.63,6.85,3.66c2.55,1.03,5.16,2.08,7.86,3.16c2.69,1.07,5.31,2.25,7.86,3.53
	c2.55,1.28,4.83,2.86,6.85,4.73c2.02,1.87,3.64,4.16,4.86,6.85c1.22,2.69,1.83,5.97,1.83,9.85V71.81z"/>
<path class="st0" d="M323.22,71.81c0,3.07-0.62,5.95-1.86,8.65c-1.24,2.69-2.9,5.05-4.99,7.07c-2.08,2.02-4.5,3.61-7.26,4.76
	c-2.76,1.16-5.67,1.74-8.74,1.74h-6.5c-3.07,0-5.99-0.58-8.74-1.74c-2.76-1.16-5.18-2.75-7.26-4.76s-3.75-4.38-4.99-7.07
	c-1.24-2.69-1.86-5.57-1.86-8.65v-3.6l8.14-1.33v4.92c0,2.02,0.41,3.9,1.23,5.65c0.82,1.75,1.92,3.28,3.31,4.61s3,2.37,4.83,3.12
	c1.83,0.76,3.76,1.14,5.77,1.14H300c2.02,0,3.93-0.38,5.74-1.14c1.81-0.76,3.41-1.8,4.8-3.12c1.39-1.33,2.49-2.86,3.31-4.61
	c0.82-1.75,1.23-3.63,1.23-5.65V69.1c0-3.11-0.61-5.7-1.83-7.76c-1.22-2.06-2.84-3.82-4.86-5.27s-4.3-2.68-6.85-3.69
	c-2.55-1.01-5.17-2.02-7.86-3.03c-2.69-1.01-5.31-2.12-7.86-3.34c-2.55-1.22-4.83-2.75-6.85-4.58s-3.64-4.07-4.86-6.72
	c-1.22-2.65-1.83-5.91-1.83-9.78v-1.7c0-3.07,0.58-5.95,1.74-8.65c1.16-2.69,2.75-5.05,4.76-7.07s4.39-3.61,7.1-4.76
	C288.6,1.58,291.5,1,294.57,1h5.81c3.07,0,5.95,0.58,8.65,1.74c2.69,1.16,5.05,2.75,7.07,4.76s3.61,4.38,4.76,7.07
	c1.16,2.69,1.74,5.58,1.74,8.65v2.34l-8.14,1.33v-3.66c0-2.02-0.38-3.9-1.14-5.65c-0.76-1.75-1.79-3.27-3.09-4.58
	c-1.3-1.3-2.83-2.34-4.58-3.09c-1.75-0.76-3.63-1.14-5.65-1.14h-5.05c-2.02,0-3.9,0.38-5.65,1.14c-1.75,0.76-3.28,1.79-4.61,3.09
	c-1.33,1.3-2.37,2.83-3.12,4.58c-0.76,1.75-1.14,3.63-1.14,5.65v1.7c0,2.9,0.61,5.34,1.83,7.32c1.22,1.98,2.84,3.67,4.86,5.08
	c2.02,1.41,4.3,2.63,6.85,3.66c2.55,1.03,5.16,2.08,7.86,3.16c2.69,1.07,5.31,2.25,7.86,3.53c2.55,1.28,4.83,2.86,6.85,4.73
	c2.02,1.87,3.64,4.16,4.86,6.85c1.22,2.69,1.83,5.97,1.83,9.85V71.81z"/>
<path class="st1" d="M396.43,92.76V30.73l-0.57,3.85l-21.02,58.19h-4.29l-21.21-58.19l-0.5-3.85v62.04h-8.14V2.26h4.23l27.45,74.22
	l0.25,3.34l0.25-3.34l27.39-74.22h4.29v90.5H396.43z"/>
<path class="st1" d="M459.16,71.68h-28.65l-5.93,21.08h-8.46l26.51-90.5h4.29l26.63,90.5h-8.39L459.16,71.68z M432.72,63.92h24.3
	l-11.93-41.72l-0.25-3.34l-0.25,3.34L432.72,63.92z"/>
<path class="st1" d="M527.7,92.76l-24.55-38.62h-11.17v38.62h-8.14V2.26h28.72c3.07,0,5.95,0.58,8.65,1.74
	c2.69,1.16,5.05,2.75,7.07,4.76c2.02,2.02,3.61,4.39,4.76,7.1c1.16,2.71,1.74,5.61,1.74,8.68v7.32c0,3.07-0.58,5.96-1.74,8.68
	c-1.16,2.71-2.75,5.08-4.76,7.1c-2.02,2.02-4.38,3.61-7.07,4.76c-2.69,1.16-5.58,1.74-8.65,1.74l24.55,38.62H527.7z M526.63,24.54
	c0-2.02-0.38-3.9-1.14-5.65c-0.76-1.75-1.79-3.28-3.09-4.61c-1.3-1.33-2.83-2.37-4.58-3.12c-1.75-0.76-3.63-1.14-5.65-1.14h-20.2
	v36.35h20.2c2.02,0,3.9-0.38,5.65-1.14c1.75-0.76,3.27-1.8,4.58-3.12c1.3-1.33,2.34-2.86,3.09-4.61c0.76-1.75,1.14-3.63,1.14-5.65
	V24.54z"/>
<path class="st1" d="M592.2,92.76l-18.62-37.61l-18.62,37.61h-8.84l23.04-46.51L547.46,2.26h8.77l17.36,35.03l17.29-35.03h8.77
	l-21.71,43.99l23.04,46.51H592.2z"/>
</svg>
